<?xml version="1.0" encoding="UTF-8"?>
<svg id="Layer_2" data-name="Layer 2" xmlns="http://www.w3.org/2000/svg" viewBox="0 0 358.23 100.15">
  <defs>
    <style>
      .cls-1 {
        stroke-width: 3px;
      }

      .cls-1, .cls-2 {
        fill: none;
        stroke: #a7a9ac;
        stroke-miterlimit: 10;
      }

      .cls-3 {
        fill: #fff;
      }

      .cls-4 {
        fill: #a7a9ac;
      }

      .cls-5 {
        fill: #a8a9ac;
      }

      .cls-2 {
        stroke-width: 4px;
      }
    </style>
  </defs>
  <g id="Layer_2-2" data-name="Layer 2">
    <line class="cls-2" x1="14.9" y1="58.53" x2="14.9" y2="58.53"/>
    <g>
      <g>
        <path class="cls-3" d="m64.2,4.45v7.89h6.68v2.07h-6.68v14.16c0,2.28.19,3.77.56,4.49.37.72,1.37,1.07,2.99,1.07,1.24,0,2.69-.39,4.35-1.16v2.43c-1.67.81-3.31,1.22-4.92,1.22s-2.88-.45-3.93-1.35c-1.05-.9-1.58-2.14-1.58-3.73V14.41h-6.42v-2.07h6.42v-5.67l1.73-2.23h.8Z"/>
        <path class="cls-3" d="m78.07,0v16.48h.1c1.98-3.07,4.6-4.61,7.84-4.61,2.69,0,4.84.86,6.44,2.59,1.6,1.73,2.41,4.1,2.41,7.12v14.57h-2.54v-13.56c0-5.49-2.16-8.23-6.47-8.23-3.09,0-5.69,1.7-7.79,5.1v16.69h-2.54V0h2.54Z"/>
        <path class="cls-3" d="m121.81,23.37h-18.76c-.05.41-.08.83-.08,1.24,0,2.66.95,4.91,2.85,6.75,1.9,1.85,4.14,2.77,6.73,2.77,3.02,0,5.97-1.18,8.85-3.55v2.87c-2.73,2.11-5.78,3.16-9.16,3.16s-6.27-1.19-8.51-3.57c-2.24-2.38-3.36-5.41-3.36-9.08,0-3.48,1.04-6.37,3.11-8.66,2.07-2.29,4.68-3.43,7.82-3.43,2.95,0,5.44,1.03,7.48,3.09,2.04,2.06,3.05,4.86,3.05,8.4Zm-18.43-2.04h15.42c-.9-4.64-3.41-6.96-7.53-6.96-1.95,0-3.64.61-5.06,1.82-1.42,1.22-2.37,2.93-2.83,5.14Z"/>
        <path class="cls-3" d="m160.65,32.01v2.12c-2.19,1.66-3.8,2.48-4.81,2.48-.59,0-.99-.19-1.22-.58-.22-.39-.39-1.18-.49-2.37-2.5,1.97-4.99,2.95-7.45,2.95-1.79,0-3.31-.59-4.55-1.76-1.24-1.17-1.86-2.6-1.86-4.27,0-2.59,1.2-4.63,3.6-6.12,2.4-1.49,5.82-2.35,10.27-2.57v-3.03c0-3.24-1.76-4.87-5.28-4.87-2.24,0-4.67,1.01-7.27,3.03v-2.61c2.69-1.69,5.25-2.54,7.69-2.54,2.16,0,3.93.53,5.33,1.59,1.4,1.06,2.1,2.6,2.1,4.62v14.83c0,.81.19,1.22.57,1.22.48,0,1.61-.71,3.39-2.12Zm-6.52-.57v-7.43c-3.26-.12-5.96.45-8.11,1.72-2.15,1.27-3.22,2.89-3.22,4.85,0,1.1.45,2.04,1.35,2.79.9.76,2.02,1.14,3.36,1.14,2.17,0,4.38-1.03,6.62-3.08Z"/>
        <path class="cls-3" d="m184.54,23.37h-18.76c-.05.41-.08.83-.08,1.24,0,2.66.95,4.91,2.85,6.75,1.9,1.85,4.14,2.77,6.73,2.77,3.02,0,5.97-1.18,8.85-3.55v2.87c-2.73,2.11-5.78,3.16-9.16,3.16s-6.27-1.19-8.51-3.57c-2.24-2.38-3.36-5.41-3.36-9.08,0-3.48,1.04-6.37,3.11-8.66,2.07-2.29,4.67-3.43,7.82-3.43,2.95,0,5.44,1.03,7.48,3.09,2.04,2.06,3.05,4.86,3.05,8.4Zm-18.43-2.04h15.42c-.9-4.64-3.41-6.96-7.53-6.96-1.95,0-3.64.61-5.06,1.82-1.42,1.22-2.37,2.93-2.83,5.14Z"/>
        <path class="cls-3" d="m206.12,14.7l-1.47,2.38c-1.98-1.81-3.58-2.72-4.79-2.72-2.38,0-4.93,2.28-7.63,6.83v14.96h-2.54V12.34h2.54v6.26h.1c2.85-4.49,5.62-6.73,8.33-6.73,1.55,0,3.37.94,5.46,2.82Z"/>
        <path class="cls-3" d="m218.36,11.88c3.45,0,6.33,1.18,8.63,3.55,2.3,2.36,3.46,5.31,3.46,8.85s-1.15,6.46-3.46,8.81c-2.3,2.35-5.18,3.53-8.63,3.53s-6.34-1.18-8.66-3.53c-2.32-2.36-3.48-5.29-3.48-8.81s1.16-6.49,3.48-8.85c2.32-2.36,5.21-3.55,8.66-3.55Zm0,22.26c2.67,0,4.91-.94,6.7-2.81,1.79-1.87,2.69-4.22,2.69-7.05s-.9-5.17-2.7-7.06c-1.8-1.9-4.03-2.85-6.69-2.85s-4.94.94-6.74,2.82c-1.8,1.88-2.7,4.24-2.7,7.09s.9,5.18,2.7,7.05,4.05,2.81,6.74,2.81Z"/>
        <path class="cls-3" d="m249.11,13.9v2.74c-2.42-1.62-4.59-2.43-6.52-2.43-1.43,0-2.64.39-3.62,1.16-.98.77-1.47,1.73-1.47,2.86,0,.81.3,1.55.9,2.23.6.68,2.25,1.54,4.94,2.58,2.7,1.04,4.46,2.12,5.29,3.25.83,1.12,1.24,2.37,1.24,3.75,0,1.85-.75,3.4-2.25,4.67-1.5,1.27-3.36,1.9-5.56,1.9-2.4,0-4.78-.72-7.14-2.17v-2.48c2.81,1.45,5.3,2.17,7.48,2.17,1.47,0,2.67-.39,3.61-1.16.94-.78,1.41-1.77,1.41-2.97,0-.83-.31-1.59-.92-2.29s-2.27-1.58-4.97-2.65c-2.7-1.07-4.45-2.13-5.25-3.17-.8-1.04-1.2-2.2-1.2-3.48,0-1.81.75-3.35,2.24-4.62,1.49-1.27,3.31-1.9,5.45-1.9,1.95,0,4.07.67,6.37,2.02Z"/>
        <path class="cls-3" d="m257.36,12.34v1.35c2.4-1.21,4.79-1.81,7.17-1.81,3.38,0,6.19,1.16,8.41,3.49,2.23,2.33,3.34,5.26,3.34,8.8s-1.15,6.43-3.44,8.84c-2.29,2.41-5.1,3.61-8.41,3.61-2.29,0-4.65-.59-7.06-1.79v13.51h-2.54V12.34h2.54Zm0,3.78v16.23c2.16,1.19,4.35,1.79,6.57,1.79,2.85,0,5.15-.9,6.91-2.69,1.76-1.79,2.64-4.15,2.64-7.06s-.93-5.29-2.79-7.18c-1.86-1.89-4.22-2.83-7.07-2.83-2.04,0-4.12.59-6.26,1.76Z"/>
        <path class="cls-3" d="m300.81,32.01v2.12c-2.19,1.66-3.8,2.48-4.81,2.48-.59,0-.99-.19-1.22-.58-.22-.39-.39-1.18-.49-2.37-2.5,1.97-4.99,2.95-7.45,2.95-1.79,0-3.31-.59-4.55-1.76-1.24-1.17-1.86-2.6-1.86-4.27,0-2.59,1.2-4.63,3.6-6.12,2.4-1.49,5.82-2.35,10.27-2.57v-3.03c0-3.24-1.76-4.87-5.28-4.87-2.24,0-4.67,1.01-7.27,3.03v-2.61c2.69-1.69,5.25-2.54,7.69-2.54,2.16,0,3.93.53,5.33,1.59,1.4,1.06,2.1,2.6,2.1,4.62v14.83c0,.81.19,1.22.57,1.22.48,0,1.61-.71,3.39-2.12Zm-6.52-.57v-7.43c-3.26-.12-5.96.45-8.11,1.72-2.15,1.27-3.22,2.89-3.22,4.85,0,1.1.45,2.04,1.35,2.79.9.76,2.02,1.14,3.36,1.14,2.17,0,4.38-1.03,6.62-3.08Z"/>
        <path class="cls-3" d="m321.21,13.04v2.82c-2.28-1-4.34-1.5-6.19-1.5-2.66,0-4.82.92-6.48,2.77-1.67,1.85-2.5,4.24-2.5,7.19s.83,5.39,2.5,7.16,3.89,2.65,6.69,2.65c2.04,0,4.18-.46,6.42-1.37v2.64c-2.38.81-4.59,1.22-6.62,1.22-3.48,0-6.3-1.1-8.45-3.31-2.15-2.21-3.22-5.11-3.22-8.7s1.08-6.8,3.25-9.17c2.17-2.37,4.93-3.56,8.29-3.56,1.85,0,3.95.39,6.31,1.16Z"/>
        <path class="cls-3" d="m346.8,23.37h-18.76c-.05.41-.08.83-.08,1.24,0,2.66.95,4.91,2.85,6.75,1.9,1.85,4.14,2.77,6.73,2.77,3.02,0,5.97-1.18,8.85-3.55v2.87c-2.73,2.11-5.78,3.16-9.16,3.16s-6.27-1.19-8.51-3.57c-2.24-2.38-3.36-5.41-3.36-9.08,0-3.48,1.04-6.37,3.11-8.66,2.07-2.29,4.67-3.43,7.82-3.43,2.95,0,5.44,1.03,7.48,3.09,2.04,2.06,3.05,4.86,3.05,8.4Zm-18.43-2.04h15.42c-.9-4.64-3.41-6.96-7.53-6.96-1.95,0-3.64.61-5.06,1.82-1.42,1.22-2.37,2.93-2.83,5.14Z"/>
      </g>
      <g>
        <path class="cls-4" d="m60.47,54.74h15.69c7.94,0,13.99,2.08,18.18,6.26,4.18,4.17,6.27,9.56,6.27,16.17s-2.07,11.83-6.21,16.06c-4.14,4.22-10.02,6.34-17.63,6.34h-16.3v-44.82Zm3.47,2.89v39.05h12.64c5.8,0,10.63-1.78,14.49-5.34,3.86-3.56,5.79-8.28,5.79-14.17s-1.9-10.45-5.71-14.09c-3.81-3.64-8.74-5.45-14.79-5.45h-12.42Z"/>
        <path class="cls-4" d="m140.14,54.74l-18.78,45.27h-1.02l-18.86-45.27h3.51l15.88,37.93,15.77-37.93h3.5Z"/>
        <path class="cls-4" d="m170.04,54.74v2.89h-20.98v17.94h20.44v2.92h-20.44v18.19h21.5v2.89h-24.96v-44.82h24.45Z"/>
        <path class="cls-4" d="m177.74,54.74h11.49c4.81,0,8.49,1.04,11.04,3.13,2.54,2.09,3.82,4.9,3.82,8.46,0,5.18-2.85,8.81-8.54,10.91,1.48.71,3.46,2.98,5.97,6.83l10.14,15.5h-4.1l-7.81-12.29c-2.61-4.11-4.64-6.67-6.09-7.69s-3.58-1.53-6.38-1.53h-6.06v21.5h-3.46v-44.82Zm3.46,2.89v17.55h7.44c3.79,0,6.68-.76,8.68-2.29s3-3.7,3-6.5-1.02-4.91-3.05-6.45c-2.03-1.54-4.95-2.31-8.76-2.31h-7.32Z"/>
        <path class="cls-4" d="m236.49,56.99v3.82c-3.89-2.29-7.24-3.43-10.04-3.43s-4.95.82-6.75,2.45c-1.81,1.64-2.71,3.66-2.71,6.08,0,1.73.53,3.29,1.6,4.68,1.07,1.39,3.31,2.73,6.71,4.01,3.4,1.28,5.88,2.35,7.44,3.21,1.56.86,2.89,2.1,3.98,3.72s1.64,3.73,1.64,6.32c0,3.44-1.26,6.35-3.79,8.73-2.52,2.38-5.6,3.56-9.24,3.56s-7.55-1.3-11.49-3.91v-4.08c4.34,3.19,8.11,4.78,11.29,4.78,2.65,0,4.89-.86,6.72-2.58,1.83-1.72,2.74-3.83,2.74-6.34,0-1.9-.57-3.62-1.7-5.15-1.13-1.53-3.43-2.96-6.9-4.29-3.46-1.33-5.94-2.4-7.43-3.21-1.49-.81-2.75-1.97-3.79-3.48s-1.56-3.45-1.56-5.82c0-3.29,1.26-6.1,3.79-8.42,2.52-2.32,5.56-3.48,9.11-3.48s6.94.94,10.36,2.82Z"/>
        <path class="cls-4" d="m263.93,54.42l20.72,45.15h-3.64l-7.09-15.5h-21.92l-7.06,15.5h-3.64l20.72-45.15h1.9Zm8.68,26.76l-9.66-21.11-9.62,21.11h19.28Z"/>
        <path class="cls-4" d="m290.08,54.74h11.49c4.81,0,8.49,1.04,11.04,3.13,2.54,2.09,3.82,4.9,3.82,8.46,0,5.18-2.85,8.81-8.54,10.91,1.48.71,3.46,2.98,5.97,6.83l10.14,15.5h-4.1l-7.81-12.29c-2.61-4.11-4.64-6.67-6.09-7.69s-3.58-1.53-6.38-1.53h-6.06v21.5h-3.46v-44.82Zm3.46,2.89v17.55h7.44c3.79,0,6.68-.76,8.68-2.29s3-3.7,3-6.5-1.02-4.91-3.05-6.45c-2.03-1.54-4.95-2.31-8.76-2.31h-7.32Z"/>
        <path class="cls-4" d="m358.23,54.74l-17.42,20.76v24.06h-3.46v-24.06l-17.42-20.76h4.19l14.99,17.76,14.9-17.76h4.23Z"/>
      </g>
      <g>
        <g>
          <path class="cls-1" d="m32.74,23.98c.12,15.27-14.45,64.69-32.02,74.28"/>
          <line class="cls-1" x1="27.17" y1="51.03" x2="51.28" y2="99.16"/>
          <line class="cls-1" x1="37.28" y1="73.42" x2="18.81" y2="73.42"/>
        </g>
        <g>
          <polygon class="cls-3" points="29.41 24.38 29.19 22.12 31.76 20.86 32.35 23.69 29.41 24.38"/>
          <polygon class="cls-3" points="36.16 24.79 36.73 22.58 34.37 21.01 33.35 23.74 36.16 24.79"/>
          <path class="cls-5" d="m31.13,24.55l.39-7.78c.07-1.09.39-2.15.95-3.11l1.14-1.97.66,1.35c.6,1.23.86,2.59.74,3.94l-.65,7.53-3.24.04Z"/>
          <polygon class="cls-3" points="32.33 23.68 33.12 23.72 33.75 14.35 32.96 14.31 32.33 23.68"/>
        </g>
      </g>
    </g>
  </g>
</svg>