<svg version="1.1" id="Layer_1" xmlns="http://www.w3.org/2000/svg" xmlns:xlink="http://www.w3.org/1999/xlink" x="0px" y="0px"
	 width="100%" viewBox="0 0 3000 1407" enable-background="new 0 0 3000 1407" xml:space="preserve">
<path fill="#000000" opacity="1.000000" stroke="none" 
	d="
M2302.000000,1410.000000 
	C1534.753418,1410.000000 768.506897,1410.000000 2.130180,1410.000000 
	C2.130180,940.806641 2.130180,471.613220 2.130180,2.209907 
	C1002.000000,2.209907 2002.000000,2.209907 3001.959473,2.209907 
	C3001.959473,471.493561 3001.959473,940.746765 3001.959473,1410.000000 
	C2768.946045,1410.000000 2535.973145,1410.000000 2302.000000,1410.000000 
M472.909454,929.251160 
	C512.680237,882.487854 552.408630,835.688416 592.231018,788.968994 
	C665.645996,702.838867 739.107483,616.748291 812.581604,530.668579 
	C817.851746,524.494263 823.382385,518.542236 829.409912,511.795074 
	C844.766113,558.834717 859.507935,604.669373 874.704529,650.352600 
	C889.918823,696.088989 904.331238,742.102356 920.800720,787.476929 
	C921.673340,783.990967 921.708557,780.735962 921.668091,777.481873 
	C921.233459,742.550354 920.694031,707.619812 920.368774,672.687317 
	C920.030762,636.384888 919.981018,600.079651 919.649902,563.777161 
	C919.313110,526.853699 918.678101,489.932922 918.372192,453.009308 
	C918.024353,411.042328 917.935547,369.073303 917.664246,327.105591 
	C917.255432,263.851685 916.791870,200.598068 916.310669,137.344650 
	C916.297668,135.639984 915.813782,133.938919 915.351929,130.963120 
	C913.740112,133.312164 912.927490,134.315964 912.307007,135.427048 
	C893.368652,169.341675 874.473572,203.280472 855.521545,237.187454 
	C815.984497,307.923096 776.448547,378.659454 736.856262,449.364197 
	C700.029602,515.129822 663.088074,580.831055 626.274780,646.604187 
	C587.182617,716.449036 548.144714,786.324280 509.161743,856.230103 
	C495.919922,879.975952 482.917358,903.855225 468.708771,928.378601 
	C467.136597,931.368835 465.564453,934.359070 463.992279,937.349304 
	C464.467560,937.622925 464.942841,937.896545 465.418152,938.170227 
	C467.517609,935.411743 469.617035,932.653259 472.909454,929.251160 
M853.000061,1170.230713 
	C670.373718,1170.230713 487.747406,1170.230713 305.341156,1170.230713 
	C296.557312,1180.892456 287.923584,1191.400757 279.258789,1201.883423 
	C260.208618,1224.930054 241.125900,1247.950073 222.127243,1271.039185 
	C221.065735,1272.329224 220.644714,1274.146240 219.851273,1275.880371 
	C497.614777,1275.880371 774.585632,1275.880371 1051.622803,1275.880371 
	C1040.704224,1240.906738 1029.887207,1206.258911 1018.639343,1170.230713 
	C964.462830,1170.230713 909.731506,1170.230713 853.000061,1170.230713 
M479.185364,960.177979 
	C475.235413,963.558594 472.254150,967.577637 469.489929,972.057129 
	C466.966858,976.145752 461.201202,978.488464 459.359802,982.693359 
	C454.474365,993.849182 445.174408,1001.498230 437.711945,1010.246399 
	C429.991730,1019.296509 423.992157,1029.640503 415.669647,1038.144287 
	C414.700165,1039.134888 414.462250,1040.841431 413.405243,1043.359375 
	C602.196960,1043.359375 789.738892,1043.359375 976.986145,1043.359375 
	C966.912415,1011.938293 956.854126,980.565186 946.822205,949.274292 
	C941.456970,949.274292 936.485840,949.274292 931.514709,949.274292 
	C788.566162,949.275269 645.617554,949.353516 502.669464,949.103088 
	C493.146545,949.086426 485.008484,949.813110 479.185364,960.177979 
M896.106262,793.209167 
	C879.140808,793.249573 862.175415,793.320435 845.209961,793.325134 
	C772.607117,793.345154 700.004089,793.399597 627.401550,793.259399 
	C621.032410,793.247131 615.841431,794.027100 611.849121,799.793091 
	C607.773987,805.678650 602.905151,811.032471 598.200439,816.460083 
	C591.376221,824.332947 584.377258,832.054260 577.484741,839.868347 
	C576.835815,840.604004 576.095398,841.484802 575.938416,842.391846 
	C574.938232,848.171082 570.774353,851.453369 566.525269,854.709778 
	C562.855469,857.522461 560.174805,860.812195 560.827148,865.648682 
	C680.718262,865.648682 800.111328,865.648682 919.826355,865.648682 
	C917.165833,857.015137 914.707642,848.857117 912.136902,840.734802 
	C907.256042,825.313171 902.310791,809.911926 896.106262,793.209167 
M811.291443,561.883362 
	C784.649719,588.951294 761.951233,619.421021 737.193481,648.114380 
	C712.402039,676.846863 688.977783,706.759094 664.535217,736.666992 
	C736.532532,736.666992 807.072937,736.666992 877.974182,736.666992 
	C876.851562,732.368896 876.108643,728.819580 875.000793,725.388062 
	C857.434143,670.976074 839.844421,616.571350 822.150696,562.200562 
	C821.222534,559.348328 819.857239,555.149841 817.759888,554.471802 
	C813.169861,552.987976 815.851807,559.981201 811.291443,561.883362 
M1243.635620,712.991211 
	C1243.635620,722.853821 1243.635620,732.716431 1243.635620,743.320374 
	C1248.102417,743.320374 1251.370850,743.320374 1254.639282,743.320374 
	C1278.279175,743.320374 1301.920776,743.145203 1325.558350,743.377075 
	C1343.726685,743.555237 1361.238159,740.475342 1378.084961,733.817017 
	C1409.741699,721.305420 1433.367432,700.241455 1446.825439,668.527039 
	C1456.460693,645.820801 1457.548218,622.205627 1454.172729,598.149414 
	C1450.421753,571.416687 1438.123535,548.932678 1418.476318,530.871277 
	C1392.919189,507.376740 1361.770142,497.058777 1327.522461,496.192688 
	C1302.233887,495.553162 1276.916260,496.051056 1251.611572,496.091553 
	C1249.063843,496.095642 1246.516602,496.441162 1243.635620,496.652710 
	C1243.635620,568.534241 1243.635620,639.764648 1243.635620,712.991211 
M2025.335205,532.058350 
	C2017.034424,515.480652 2003.335205,505.501709 1985.660034,501.501953 
	C1973.766968,498.810608 1961.527832,496.739807 1949.374634,496.302399 
	C1926.756470,495.488281 1904.088135,496.050323 1881.440674,496.094666 
	C1878.909790,496.099609 1876.379639,496.460999 1874.344482,496.618683 
	C1874.344482,579.186646 1874.344482,660.942261 1874.344482,742.479248 
	C1883.165283,742.479248 1891.244995,742.479248 1899.883789,742.479248 
	C1899.883789,704.103333 1899.883789,666.561584 1899.883789,628.569946 
	C1913.641846,628.569946 1926.822388,628.569946 1940.484863,628.569946 
	C1946.896606,639.277283 1953.402954,650.053955 1959.822998,660.881836 
	C1974.719849,686.006653 1989.520508,711.188660 2004.526367,736.248047 
	C2006.123535,738.915161 2008.673462,742.725098 2011.035278,742.919373 
	C2020.414795,743.690369 2029.895264,743.236633 2040.601807,743.236633 
	C2016.305054,703.602478 1992.948730,665.502502 1969.235718,626.820496 
	C1974.377930,625.630066 1978.551514,624.823853 1982.634033,623.689819 
	C1996.695068,619.783813 2009.097290,613.296387 2018.112061,601.268494 
	C2033.942017,580.147278 2034.815308,557.415833 2025.335205,532.058350 
M2578.637939,623.717712 
	C2581.177002,622.942749 2583.768066,622.305420 2586.247559,621.371948 
	C2614.707764,610.656677 2628.359619,586.499634 2627.439697,560.595703 
	C2626.377686,530.691772 2614.153320,509.946136 2581.216553,501.441010 
	C2568.198730,498.079529 2554.432617,496.872284 2540.937500,496.283051 
	C2521.658447,495.441284 2502.315186,496.068726 2482.999512,496.068726 
	C2478.762207,496.068726 2474.524902,496.068756 2470.105225,496.068756 
	C2470.105225,578.829590 2470.105225,660.598083 2470.105225,742.694214 
	C2478.708252,742.694214 2486.833496,742.694214 2495.869141,742.694214 
	C2495.869141,704.304871 2495.869141,666.526733 2495.869141,628.530884 
	C2509.979004,628.530884 2523.169189,628.530884 2536.552979,628.530884 
	C2547.340820,646.727051 2557.999512,664.699829 2568.652832,682.675659 
	C2579.314941,700.666382 2589.944092,718.676758 2600.658691,736.636169 
	C2602.464111,739.662109 2603.689941,743.405029 2608.408203,743.339600 
	C2617.273438,743.216675 2626.141602,743.304199 2636.614746,743.304199 
	C2612.358398,703.707947 2588.919434,665.445679 2565.229248,626.773071 
	C2569.969238,625.695862 2573.522949,624.888184 2578.637939,623.717712 
M1013.788574,684.587219 
	C1005.275635,703.755249 996.722961,722.907288 988.734558,742.906616 
	C999.143555,742.906616 1008.058289,742.906616 1017.215210,742.906616 
	C1025.953491,721.849915 1034.580811,701.060364 1043.386597,679.841187 
	C1085.587769,679.841187 1127.764648,679.841187 1170.448486,679.841187 
	C1179.388550,701.013733 1188.265137,722.036194 1197.039062,742.815430 
	C1206.879272,742.815430 1216.009888,742.815430 1226.142578,742.815430 
	C1190.551514,659.914795 1155.304443,577.815430 1120.343506,496.382568 
	C1110.837891,496.382568 1102.872681,496.382568 1094.910034,496.382568 
	C1067.951538,558.811462 1041.108398,620.973389 1013.788574,684.587219 
M2232.614258,743.324829 
	C2236.166260,743.324829 2239.718262,743.324829 2243.039307,743.324829 
	C2252.112549,721.467041 2260.732666,700.701233 2269.441650,679.721436 
	C2311.685547,679.721436 2353.592773,679.721436 2396.352295,679.721436 
	C2405.270264,700.775696 2414.277344,722.039490 2423.003418,742.640503 
	C2433.177734,742.640503 2442.244873,742.640503 2452.062012,742.640503 
	C2416.540039,659.886047 2381.390381,577.998535 2346.402588,496.488586 
	C2337.201416,496.488586 2328.961182,496.488586 2320.865479,496.488586 
	C2285.363525,578.682922 2250.037354,660.469543 2214.250000,743.324768 
	C2220.906494,743.324768 2225.875488,743.324768 2232.614258,743.324829 
M1710.368164,555.002869 
	C1710.368164,543.426331 1710.368164,531.849792 1710.368164,519.253540 
	C1753.443848,519.253540 1795.576172,519.253540 1837.839111,519.253540 
	C1837.839111,511.052643 1837.839111,503.890137 1837.839111,496.649902 
	C1786.539062,496.649902 1735.770508,496.649902 1684.904297,496.649902 
	C1684.904297,578.977966 1684.904297,660.718750 1684.904297,742.684814 
	C1737.603027,742.684814 1789.696655,742.684814 1841.756104,742.684814 
	C1841.756104,734.886841 1841.756104,727.736206 1841.756104,719.663208 
	C1797.718750,719.663208 1754.285645,719.663208 1711.120850,719.663208 
	C1711.120850,687.951477 1711.120850,657.191162 1711.120850,625.876648 
	C1751.091919,625.876648 1790.313110,625.876648 1829.876465,625.876648 
	C1829.876465,618.192688 1829.876465,611.068115 1829.876465,602.880249 
	C1789.952148,602.880249 1750.507202,602.880249 1710.368164,602.880249 
	C1710.368164,586.881409 1710.368164,571.941467 1710.368164,555.002869 
M2185.558838,730.639526 
	C2187.210205,728.992981 2188.894043,727.377625 2190.507812,725.695068 
	C2210.934082,704.398132 2214.481689,667.339600 2198.639648,642.493958 
	C2191.170410,630.779785 2180.207031,623.328430 2167.907471,618.061646 
	C2155.427490,612.717651 2142.284424,608.943542 2129.654053,603.922668 
	C2119.224854,599.776672 2108.221191,596.144531 2099.052002,589.947266 
	C2077.620361,575.462219 2075.915039,547.239502 2093.587402,528.482178 
	C2111.674072,509.285309 2151.262939,505.053955 2175.145020,527.391357 
	C2178.466797,530.498230 2181.606689,533.799133 2184.931641,537.110596 
	C2191.829834,531.401062 2198.156494,526.164917 2204.795410,520.669922 
	C2203.443115,518.651794 2202.683350,517.176575 2201.605225,515.990845 
	C2200.046631,514.276367 2198.350098,512.657654 2196.552490,511.194366 
	C2168.575928,488.420685 2137.067139,485.369202 2103.516846,494.993652 
	C2091.184326,498.531464 2080.238281,505.146149 2071.696045,514.651917 
	C2046.792358,542.364990 2047.988281,596.098328 2091.510986,615.582275 
	C2106.923584,622.482117 2123.184570,627.466492 2138.936035,633.638000 
	C2146.632812,636.653564 2154.341309,639.862854 2161.539551,643.887268 
	C2188.018555,658.690735 2187.037354,695.220520 2167.056885,712.613953 
	C2145.885986,731.043579 2111.308105,732.233765 2088.853760,714.499939 
	C2082.233154,709.271118 2076.679688,702.691040 2070.502441,696.597290 
	C2063.552979,701.861572 2056.481201,707.218628 2049.463623,712.534546 
	C2075.543213,752.293579 2145.107910,763.013794 2185.558838,730.639526 
M1523.733521,679.560120 
	C1531.818848,700.882141 1539.904175,722.204163 1547.797119,743.018677 
	C1557.696411,743.018677 1566.325806,743.018677 1575.685791,743.018677 
	C1607.063354,660.996826 1638.433838,578.993408 1670.022583,496.419678 
	C1660.095459,496.419678 1651.215088,496.419678 1642.019897,496.419678 
	C1628.720459,531.680481 1615.351562,566.684937 1602.314941,601.812683 
	C1589.271118,636.959351 1576.469727,672.194336 1562.868896,707.121216 
	C1562.211670,707.030579 1561.554565,706.939941 1560.897339,706.849243 
	C1534.687256,636.737488 1508.477173,566.625671 1482.222168,496.394043 
	C1472.816895,496.394043 1463.910034,496.394043 1453.777710,496.394043 
	C1477.021118,557.408569 1500.023315,617.789612 1523.733521,679.560120 
M2789.833008,522.691162 
	C2770.812012,552.946228 2751.791016,583.201355 2731.932129,614.788940 
	C2706.834717,574.433289 2682.545410,535.376709 2658.600342,496.874054 
	C2647.502930,496.874054 2637.157715,496.874054 2625.907227,496.874054 
	C2627.884766,500.104523 2629.185059,502.373199 2630.620850,504.552856 
	C2658.413086,546.743713 2686.152588,588.969421 2714.126221,631.039490 
	C2717.052002,635.439087 2718.410889,639.678528 2718.382568,644.900696 
	C2718.222168,674.547119 2718.292480,704.194824 2718.324951,733.842102 
	C2718.328125,736.726257 2718.610596,739.610107 2718.771973,742.650269 
	C2727.611816,742.650269 2735.719727,742.650269 2744.364258,742.650269 
	C2744.364258,738.674316 2744.364258,735.366821 2744.364258,732.059326 
	C2744.364258,702.745178 2744.438232,673.430603 2744.286133,644.117249 
	C2744.262939,639.619202 2745.236572,635.881714 2747.752686,632.087646 
	C2771.816162,595.802124 2795.739258,559.423035 2819.648926,523.035645 
	C2825.234131,514.535645 2830.616455,505.902191 2836.636719,496.477417 
	C2825.868652,496.477417 2816.367432,496.477417 2806.168701,496.477417 
	C2801.131348,504.592529 2795.888184,513.039185 2789.833008,522.691162 
M1377.556763,855.569397 
	C1377.556763,918.027527 1377.556763,980.485718 1377.556763,1043.400879 
	C1402.375000,1043.400879 1426.021606,1044.144043 1449.581909,1043.040771 
	C1459.215210,1042.589600 1469.224976,1039.369873 1478.093750,1035.297729 
	C1513.255005,1019.153198 1511.392456,967.585022 1485.768555,950.203125 
	C1477.587524,944.653503 1468.258057,940.796753 1459.913452,936.407043 
	C1462.696167,935.198853 1466.338379,933.679016 1469.930298,932.048218 
	C1501.200073,917.850952 1502.390625,872.885132 1479.991821,856.343262 
	C1473.755371,851.737549 1466.135376,848.373962 1458.636353,846.282654 
	C1450.764282,844.087158 1442.289551,843.465576 1434.053223,843.282166 
	C1415.512207,842.869446 1396.955566,843.152649 1377.556763,843.152649 
	C1377.556763,847.223938 1377.556763,850.476501 1377.556763,855.569397 
M1648.009155,223.009521 
	C1634.448486,237.706604 1625.114990,254.650482 1620.866211,274.269684 
	C1617.315796,290.664459 1616.836548,307.258942 1619.806030,323.677277 
	C1625.318237,354.155457 1640.150391,378.859802 1666.941528,395.522827 
	C1685.849121,407.282623 1706.575684,412.226532 1728.690430,411.374451 
	C1763.264526,410.042297 1791.771851,396.442474 1811.753662,367.767090 
	C1831.875610,338.890564 1836.003906,306.738312 1828.227661,272.825928 
	C1817.541626,226.224533 1779.965698,195.000427 1731.717041,192.142334 
	C1700.131592,190.271317 1672.184204,199.884811 1648.009155,223.009521 
M1554.876343,273.565704 
	C1559.694092,264.397736 1560.271973,254.503387 1559.747803,244.456741 
	C1558.755859,225.445480 1549.608276,211.872208 1532.215576,204.100754 
	C1522.367920,199.700577 1511.783691,198.253754 1501.139526,198.092087 
	C1482.150024,197.803711 1463.152710,197.984238 1444.159058,198.043137 
	C1441.640381,198.050949 1439.123169,198.494461 1436.610474,198.735672 
	C1436.610474,267.702148 1436.610474,335.922363 1436.610474,404.632019 
	C1439.312622,404.632019 1441.637207,404.632019 1444.661377,404.632019 
	C1444.661377,370.032318 1444.661377,336.176025 1444.661377,301.873230 
	C1460.886841,301.873230 1476.406860,301.873230 1491.961548,301.873230 
	C1494.234009,305.582275 1496.340088,308.952148 1498.380981,312.361176 
	C1515.770508,341.410431 1533.180908,370.447357 1550.494141,399.542053 
	C1553.068604,403.868195 1555.616699,407.475891 1562.117188,403.973663 
	C1541.901123,370.178192 1521.719727,336.440430 1501.086914,301.948334 
	C1505.303101,301.197540 1508.181030,300.542816 1511.095337,300.189331 
	C1529.131714,298.001190 1544.217407,290.834991 1554.876343,273.565704 
M2683.527588,294.998840 
	C2683.527588,331.567200 2683.527588,368.135529 2683.527588,404.981873 
	C2686.069580,405.191071 2687.677490,405.437988 2689.285156,405.438965 
	C2726.921143,405.461426 2764.557129,405.457977 2802.193115,405.455231 
	C2803.524658,405.455139 2804.862305,405.489075 2806.186279,405.376312 
	C2810.057861,405.046570 2810.396973,402.902313 2808.539795,398.976318 
	C2770.133545,398.976318 2731.336670,398.976318 2692.474854,398.976318 
	C2692.474854,365.960632 2692.474854,333.854950 2692.474854,301.112305 
	C2727.985596,301.112305 2762.825195,301.112305 2798.257324,301.112305 
	C2798.059082,298.318848 2797.909424,296.211121 2797.723633,293.596405 
	C2762.223633,293.596405 2727.357178,293.596405 2692.466309,293.596405 
	C2692.466309,263.947113 2692.466309,234.858078 2692.466309,205.144653 
	C2730.352051,205.144653 2767.575684,205.144653 2805.249512,205.144653 
	C2805.400146,202.683365 2805.514160,200.821045 2805.652100,198.567505 
	C2764.866455,198.567505 2724.462158,198.567505 2683.527588,198.567505 
	C2683.527588,230.432693 2683.527588,261.715729 2683.527588,294.998840 
M1289.002930,293.982361 
	C1278.117676,293.982361 1267.232544,293.982361 1256.529785,293.982361 
	C1256.529785,263.846741 1256.529785,234.765656 1256.529785,205.062866 
	C1294.484375,205.062866 1331.711548,205.062866 1369.335693,205.062866 
	C1369.335693,202.571457 1369.335693,200.716049 1369.335693,198.643463 
	C1328.750366,198.643463 1288.374146,198.643463 1248.048340,198.643463 
	C1248.048340,267.816772 1248.048340,336.327606 1248.048340,405.000366 
	C1249.847656,405.185577 1251.147339,405.435455 1252.447266,405.436249 
	C1290.416382,405.458679 1328.385376,405.457214 1366.354492,405.454437 
	C1367.685669,405.454315 1369.029907,405.511871 1370.345581,405.354401 
	C1374.225098,404.889923 1374.394287,402.706390 1372.381714,398.858398 
	C1334.027100,398.858398 1295.241333,398.858398 1256.543213,398.858398 
	C1256.543213,365.845428 1256.543213,333.764587 1256.543213,301.021545 
	C1292.114136,301.021545 1326.944458,301.021545 1362.378296,301.021545 
	C1362.077515,298.198242 1361.855835,296.116852 1361.628418,293.982361 
	C1337.628052,293.982361 1314.315063,293.982361 1289.002930,293.982361 
M2390.868408,365.723114 
	C2367.730225,309.987366 2344.591797,254.251587 2321.389160,198.361038 
	C2318.082031,198.361038 2315.154053,198.361038 2311.651855,198.361038 
	C2281.943115,266.915894 2252.221436,335.501465 2222.261230,404.636749 
	C2230.294922,404.811462 2230.414307,404.865875 2232.220215,400.902313 
	C2234.969238,394.869263 2237.542725,388.756073 2240.173584,382.669586 
	C2245.422363,370.525574 2250.659180,358.376556 2255.743652,346.593811 
	C2295.822510,346.593811 2335.054443,346.593811 2374.462158,346.593811 
	C2375.779785,349.577728 2377.025391,352.261780 2378.160645,354.991852 
	C2384.402832,370.003479 2390.671143,385.004639 2396.810547,400.058228 
	C2398.700928,404.693634 2401.270996,406.981018 2406.863037,404.103668 
	C2401.709473,391.539795 2396.684082,379.287445 2390.868408,365.723114 
M1034.400879,367.729431 
	C1037.651001,360.526337 1040.901123,353.323242 1043.899536,346.678131 
	C1084.069092,346.678131 1123.293945,346.678131 1162.406372,346.678131 
	C1163.081909,347.999115 1163.588989,348.841675 1163.960938,349.740143 
	C1170.813599,366.296997 1177.675415,382.850189 1184.473022,399.429657 
	C1186.249634,403.762878 1188.334839,407.239441 1194.979980,404.192383 
	C1166.365479,335.427246 1137.775757,266.721588 1109.126221,197.872330 
	C1105.433472,198.124298 1102.564209,198.320068 1099.577026,198.523880 
	C1069.758911,267.330414 1040.142334,335.671814 1010.431335,404.231232 
	C1016.216309,406.360352 1018.780884,405.035126 1020.661987,400.271149 
	C1024.799316,389.793457 1029.545166,379.556061 1034.400879,367.729431 
M2618.461670,387.657349 
	C2620.725586,384.966217 2622.989502,382.275055 2625.515137,379.272766 
	C2623.172607,377.458282 2621.693359,376.312408 2620.541992,375.420715 
	C2614.123779,380.594452 2608.610107,385.947754 2602.259033,389.983002 
	C2585.226318,400.804382 2566.383057,404.655090 2546.234863,404.137756 
	C2517.916504,403.410553 2494.135254,392.685669 2476.689209,370.873749 
	C2449.261963,336.582825 2445.128906,297.828644 2461.655029,257.767731 
	C2475.849854,223.357513 2502.793457,203.634293 2539.964111,199.755051 
	C2567.512451,196.880005 2592.655518,203.802368 2613.681885,222.845749 
	C2614.304688,223.409851 2615.324951,223.534775 2616.433838,223.972458 
	C2617.650879,222.298874 2618.736816,220.805664 2620.472168,218.419403 
	C2614.490967,213.921341 2609.323975,209.149109 2603.381104,205.722870 
	C2580.243652,192.383820 2555.271729,188.948715 2529.261475,194.068848 
	C2495.101074,200.793335 2469.789795,219.663208 2455.400391,251.562637 
	C2442.456299,280.257141 2441.968262,310.077362 2450.930664,340.032532 
	C2456.369385,358.210388 2466.077393,373.761536 2480.616211,386.289185 
	C2503.578857,406.074951 2530.550781,413.483429 2560.088379,411.180908 
	C2581.223145,409.533417 2601.081787,403.159821 2618.461670,387.657349 
M1245.238037,851.562439 
	C1244.022095,848.883911 1242.806152,846.205383 1241.640015,843.636658 
	C1238.242676,843.636658 1235.339722,843.636658 1232.314575,843.636658 
	C1203.583862,909.933533 1175.002075,975.886658 1146.100098,1042.578613 
	C1150.764038,1043.596436 1153.838379,1044.255737 1155.538208,1040.012207 
	C1156.524902,1037.548584 1157.521606,1035.087769 1158.571777,1032.650635 
	C1165.241699,1017.171570 1171.927612,1001.699341 1178.473267,986.537598 
	C1217.267944,986.537598 1255.200439,986.537598 1293.197266,986.537598 
	C1294.204468,988.967590 1295.087891,991.101013 1295.972778,993.233887 
	C1302.073975,1007.942322 1308.259521,1022.616638 1314.226440,1037.379272 
	C1316.047485,1041.884521 1317.981323,1045.298218 1324.458008,1041.892700 
	C1298.233887,978.953308 1271.990234,915.967163 1245.238037,851.562439 
M1962.085205,308.527618 
	C1971.330933,312.955750 1981.303833,316.312805 1989.690186,322.006714 
	C2018.376465,341.483124 2009.478638,379.897186 1988.844116,393.180878 
	C1966.038330,407.862274 1942.381104,407.559906 1918.503540,396.842682 
	C1911.365112,393.638580 1905.009399,388.463074 1898.750610,383.604034 
	C1894.427734,380.248077 1892.417725,381.824646 1889.399414,387.503876 
	C1891.270142,388.765045 1893.634521,390.055817 1895.645874,391.762543 
	C1914.798462,408.014587 1937.394165,413.604126 1961.679321,411.116730 
	C1981.611206,409.075226 1998.777222,400.725067 2008.994263,382.059601 
	C2021.534424,359.150238 2016.790405,327.920776 1994.009644,315.269989 
	C1983.052246,309.185120 1971.229736,304.608826 1959.641235,299.723328 
	C1946.534546,294.197693 1932.491577,290.993927 1920.494263,282.735321 
	C1893.343994,264.045868 1897.599854,227.239731 1917.342529,212.406357 
	C1934.309814,199.658112 1953.543213,196.450455 1974.096680,201.237823 
	C1986.685181,204.169968 1997.210205,210.838242 2006.337769,220.662689 
	C2008.334229,218.513000 2009.966919,216.755005 2011.519531,215.083130 
	C1991.771851,191.240845 1952.291138,185.498001 1923.877930,199.470932 
	C1904.177490,209.159149 1893.733887,225.156570 1893.658936,247.175217 
	C1893.584839,268.895111 1903.659302,284.805450 1923.518677,293.694611 
	C1935.598022,299.101349 1948.205444,303.328339 1962.085205,308.527618 
M2087.907227,198.033966 
	C2086.559570,198.636902 2084.253906,199.011307 2084.045410,199.885986 
	C2083.441406,202.416595 2083.601318,205.148392 2083.600586,207.801254 
	C2083.585693,270.401642 2083.588867,333.002014 2083.588867,395.602417 
	C2083.588867,398.553253 2083.589111,401.504120 2083.589111,404.852844 
	C2086.486084,404.852844 2088.651611,404.852844 2091.705566,404.852844 
	C2091.705566,371.254486 2091.705566,338.120422 2091.705566,304.148468 
	C2095.163330,304.148468 2097.741699,304.148499 2100.320312,304.148468 
	C2115.970459,304.148285 2131.628418,304.469696 2147.268799,304.078217 
	C2176.226318,303.353424 2207.611328,285.938080 2204.559326,244.829620 
	C2203.223633,226.838577 2194.925049,214.211868 2179.304443,206.033203 
	C2168.500488,200.376495 2156.725342,198.282898 2144.695801,198.102646 
	C2126.385742,197.828278 2108.068848,198.030945 2087.907227,198.033966 
M1009.556763,881.001404 
	C1009.556763,934.913574 1009.556763,988.825806 1009.556763,1043.419434 
	C1013.824463,1043.419434 1017.104675,1043.419434 1020.384888,1043.419434 
	C1047.377075,1043.419434 1074.369385,1043.419678 1101.361572,1043.419067 
	C1105.027100,1043.418945 1108.692993,1043.441040 1112.358154,1043.406250 
	C1116.975464,1043.362305 1116.791138,1040.865356 1115.485107,1037.004761 
	C1083.034180,1037.004761 1050.838867,1037.004761 1017.691895,1037.004761 
	C1017.691895,972.185059 1017.691895,908.047363 1017.691895,843.671997 
	C1014.548767,843.671997 1012.380798,843.671997 1009.556824,843.671997 
	C1009.556824,855.765930 1009.556824,867.384766 1009.556763,881.001404 
z"/>
<path fill="#FDFDFD" opacity="1.000000" stroke="none" 
	d="
M469.805481,927.673523 
	C482.917358,903.855225 495.919922,879.975952 509.161743,856.230103 
	C548.144714,786.324280 587.182617,716.449036 626.274780,646.604187 
	C663.088074,580.831055 700.029602,515.129822 736.856262,449.364197 
	C776.448547,378.659454 815.984497,307.923096 855.521545,237.187454 
	C874.473572,203.280472 893.368652,169.341675 912.307007,135.427048 
	C912.927490,134.315964 913.740112,133.312164 915.351929,130.963120 
	C915.813782,133.938919 916.297668,135.639984 916.310669,137.344650 
	C916.791870,200.598068 917.255432,263.851685 917.664246,327.105591 
	C917.935547,369.073303 918.024353,411.042328 918.372192,453.009308 
	C918.678101,489.932922 919.313110,526.853699 919.649902,563.777161 
	C919.981018,600.079651 920.030762,636.384888 920.368774,672.687317 
	C920.694031,707.619812 921.233459,742.550354 921.668091,777.481873 
	C921.708557,780.735962 921.673340,783.990967 920.800720,787.476929 
	C904.331238,742.102356 889.918823,696.088989 874.704529,650.352600 
	C859.507935,604.669373 844.766113,558.834717 829.409912,511.795074 
	C823.382385,518.542236 817.851746,524.494263 812.581604,530.668579 
	C739.107483,616.748291 665.645996,702.838867 592.231018,788.968994 
	C552.408630,835.688416 512.680237,882.487854 471.914673,929.278992 
	C470.483215,928.806885 470.111755,928.262451 469.805481,927.673523 
z"/>
<path fill="#FDFEFE" opacity="1.000000" stroke="none" 
	d="
M854.000122,1170.230713 
	C909.731506,1170.230713 964.462830,1170.230713 1018.639343,1170.230713 
	C1029.887207,1206.258911 1040.704224,1240.906738 1051.622803,1275.880371 
	C774.585632,1275.880371 497.614777,1275.880371 219.851273,1275.880371 
	C220.644714,1274.146240 221.065735,1272.329224 222.127243,1271.039185 
	C241.125900,1247.950073 260.208618,1224.930054 279.258789,1201.883423 
	C287.923584,1191.400757 296.557312,1180.892456 305.341156,1170.230713 
	C487.747406,1170.230713 670.373718,1170.230713 854.000122,1170.230713 
z"/>
<path fill="#FDFCFC" opacity="1.000000" stroke="none" 
	d="
M479.573090,959.567017 
	C485.008484,949.813110 493.146545,949.086426 502.669464,949.103088 
	C645.617554,949.353516 788.566162,949.275269 931.514709,949.274292 
	C936.485840,949.274292 941.456970,949.274292 946.822205,949.274292 
	C956.854126,980.565186 966.912415,1011.938293 976.986145,1043.359375 
	C789.738892,1043.359375 602.196960,1043.359375 413.405243,1043.359375 
	C414.462250,1040.841431 414.700165,1039.134888 415.669647,1038.144287 
	C423.992157,1029.640503 429.991730,1019.296509 437.711945,1010.246399 
	C445.174408,1001.498230 454.474365,993.849182 459.359802,982.693359 
	C461.201202,978.488464 466.966858,976.145752 469.489929,972.057129 
	C472.254150,967.577637 475.235413,963.558594 479.573090,959.567017 
z"/>
<path fill="#FEFEFE" opacity="1.000000" stroke="none" 
	d="
M896.749268,793.855713 
	C902.310791,809.911926 907.256042,825.313171 912.136902,840.734802 
	C914.707642,848.857117 917.165833,857.015137 919.826355,865.648682 
	C800.111328,865.648682 680.718262,865.648682 560.827148,865.648682 
	C560.174805,860.812195 562.855469,857.522461 566.525269,854.709778 
	C570.774353,851.453369 574.938232,848.171082 575.938416,842.391846 
	C576.095398,841.484802 576.835815,840.604004 577.484741,839.868347 
	C584.377258,832.054260 591.376221,824.332947 598.200439,816.460083 
	C602.905151,811.032471 607.773987,805.678650 611.849121,799.793091 
	C615.841431,794.027100 621.032410,793.247131 627.401550,793.259399 
	C700.004089,793.399597 772.607117,793.345154 845.209961,793.325134 
	C862.175415,793.320435 879.140808,793.249573 896.749268,793.855713 
z"/>
<path fill="#FBFBFB" opacity="1.000000" stroke="none" 
	d="
M811.793274,561.324585 
	C815.851807,559.981201 813.169861,552.987976 817.759888,554.471802 
	C819.857239,555.149841 821.222534,559.348328 822.150696,562.200562 
	C839.844421,616.571350 857.434143,670.976074 875.000793,725.388062 
	C876.108643,728.819580 876.851562,732.368896 877.974182,736.666992 
	C807.072937,736.666992 736.532532,736.666992 664.535217,736.666992 
	C688.977783,706.759094 712.402039,676.846863 737.193481,648.114380 
	C761.951233,619.421021 784.649719,588.951294 811.793274,561.324585 
z"/>
<path fill="#F9F9F9" opacity="1.000000" stroke="none" 
	d="
M1243.635620,711.993103 
	C1243.635620,639.764648 1243.635620,568.534241 1243.635620,496.652710 
	C1246.516602,496.441162 1249.063843,496.095642 1251.611572,496.091553 
	C1276.916260,496.051056 1302.233887,495.553162 1327.522461,496.192688 
	C1361.770142,497.058777 1392.919189,507.376740 1418.476318,530.871277 
	C1438.123535,548.932678 1450.421753,571.416687 1454.172729,598.149414 
	C1457.548218,622.205627 1456.460693,645.820801 1446.825439,668.527039 
	C1433.367432,700.241455 1409.741699,721.305420 1378.084961,733.817017 
	C1361.238159,740.475342 1343.726685,743.555237 1325.558350,743.377075 
	C1301.920776,743.145203 1278.279175,743.320374 1254.639282,743.320374 
	C1251.370850,743.320374 1248.102417,743.320374 1243.635620,743.320374 
	C1243.635620,732.716431 1243.635620,722.853821 1243.635620,711.993103 
M1421.822998,583.618896 
	C1406.681885,546.690125 1378.550781,526.241455 1339.609253,521.597107 
	C1319.235229,519.167175 1298.475952,519.953674 1277.888916,519.344238 
	C1275.361328,519.269348 1272.823120,519.545959 1270.338379,519.657532 
	C1270.338379,586.860657 1270.338379,653.257507 1270.338379,719.268616 
	C1292.912964,719.268616 1314.947388,720.638428 1336.739502,718.924866 
	C1364.523804,716.740173 1388.803955,705.197510 1406.402710,682.876465 
	C1429.612427,653.438965 1433.964355,620.465576 1421.822998,583.618896 
z"/>
<path fill="#F9F9F9" opacity="1.000000" stroke="none" 
	d="
M2025.592041,532.785706 
	C2034.815308,557.415833 2033.942017,580.147278 2018.112061,601.268494 
	C2009.097290,613.296387 1996.695068,619.783813 1982.634033,623.689819 
	C1978.551514,624.823853 1974.377930,625.630066 1969.235718,626.820496 
	C1992.948730,665.502502 2016.305054,703.602478 2040.601807,743.236633 
	C2029.895264,743.236633 2020.414795,743.690369 2011.035278,742.919373 
	C2008.673462,742.725098 2006.123535,738.915161 2004.526367,736.248047 
	C1989.520508,711.188660 1974.719849,686.006653 1959.822998,660.881836 
	C1953.402954,650.053955 1946.896606,639.277283 1940.484863,628.569946 
	C1926.822388,628.569946 1913.641846,628.569946 1899.883789,628.569946 
	C1899.883789,666.561584 1899.883789,704.103333 1899.883789,742.479248 
	C1891.244995,742.479248 1883.165283,742.479248 1874.344482,742.479248 
	C1874.344482,660.942261 1874.344482,579.186646 1874.344482,496.618683 
	C1876.379639,496.460999 1878.909790,496.099609 1881.440674,496.094666 
	C1904.088135,496.050323 1926.756470,495.488281 1949.374634,496.302399 
	C1961.527832,496.739807 1973.766968,498.810608 1985.660034,501.501953 
	C2003.335205,505.501709 2017.034424,515.480652 2025.592041,532.785706 
M1991.631714,592.672180 
	C2003.538574,584.441284 2008.817993,563.869141 2002.778564,547.569397 
	C1997.054810,532.121399 1985.084229,524.964050 1970.061646,521.755554 
	C1947.075073,516.846069 1923.819092,520.386292 1900.186279,519.163574 
	C1900.186279,548.430847 1900.186279,576.846558 1900.186279,605.264832 
	C1918.725098,605.264832 1936.941528,605.771973 1955.113525,605.091125 
	C1967.767578,604.617004 1980.117310,601.774658 1991.631714,592.672180 
z"/>
<path fill="#F9F9F9" opacity="1.000000" stroke="none" 
	d="
M2577.857422,623.899109 
	C2573.522949,624.888184 2569.969238,625.695862 2565.229248,626.773071 
	C2588.919434,665.445679 2612.358398,703.707947 2636.614746,743.304199 
	C2626.141602,743.304199 2617.273438,743.216675 2608.408203,743.339600 
	C2603.689941,743.405029 2602.464111,739.662109 2600.658691,736.636169 
	C2589.944092,718.676758 2579.314941,700.666382 2568.652832,682.675659 
	C2557.999512,664.699829 2547.340820,646.727051 2536.552979,628.530884 
	C2523.169189,628.530884 2509.979004,628.530884 2495.869141,628.530884 
	C2495.869141,666.526733 2495.869141,704.304871 2495.869141,742.694214 
	C2486.833496,742.694214 2478.708252,742.694214 2470.105225,742.694214 
	C2470.105225,660.598083 2470.105225,578.829590 2470.105225,496.068756 
	C2474.524902,496.068756 2478.762207,496.068726 2482.999512,496.068726 
	C2502.315186,496.068726 2521.658447,495.441284 2540.937500,496.283051 
	C2554.432617,496.872284 2568.198730,498.079529 2581.216553,501.441010 
	C2614.153320,509.946136 2626.377686,530.691772 2627.439697,560.595703 
	C2628.359619,586.499634 2614.707764,610.656677 2586.247559,621.371948 
	C2583.768066,622.305420 2581.177002,622.942749 2577.857422,623.899109 
M2600.290771,553.145874 
	C2596.379639,534.421570 2583.427979,525.404602 2565.922119,521.717163 
	C2542.952881,516.878967 2519.727295,520.360596 2496.151611,519.155762 
	C2496.151611,548.505859 2496.151611,576.907837 2496.151611,605.425537 
	C2513.778809,605.425537 2531.007568,606.022888 2548.165771,605.183594 
	C2557.288330,604.737244 2566.582031,602.686462 2575.283691,599.805054 
	C2592.969238,593.948914 2604.737061,576.407471 2600.290771,553.145874 
z"/>
<path fill="#F9F8F8" opacity="1.000000" stroke="none" 
	d="
M1014.026917,683.861206 
	C1041.108398,620.973389 1067.951538,558.811462 1094.910034,496.382568 
	C1102.872681,496.382568 1110.837891,496.382568 1120.343506,496.382568 
	C1155.304443,577.815430 1190.551514,659.914795 1226.142578,742.815430 
	C1216.009888,742.815430 1206.879272,742.815430 1197.039062,742.815430 
	C1188.265137,722.036194 1179.388550,701.013733 1170.448486,679.841187 
	C1127.764648,679.841187 1085.587769,679.841187 1043.386597,679.841187 
	C1034.580811,701.060364 1025.953491,721.849915 1017.215210,742.906616 
	C1008.058289,742.906616 999.143555,742.906616 988.734558,742.906616 
	C996.722961,722.907288 1005.275635,703.755249 1014.026917,683.861206 
M1057.770142,644.791809 
	C1056.519409,648.049683 1055.268799,651.307556 1054.005859,654.597351 
	C1089.863892,654.597351 1124.554688,654.597351 1160.177856,654.597351 
	C1142.424438,611.783630 1125.054077,569.893433 1106.979370,526.305054 
	C1090.306519,566.408813 1074.310059,604.885559 1057.770142,644.791809 
z"/>
<path fill="#F9F8F8" opacity="1.000000" stroke="none" 
	d="
M2231.729492,743.324829 
	C2225.875488,743.324768 2220.906494,743.324768 2214.250000,743.324768 
	C2250.037354,660.469543 2285.363525,578.682922 2320.865479,496.488586 
	C2328.961182,496.488586 2337.201416,496.488586 2346.402588,496.488586 
	C2381.390381,577.998535 2416.540039,659.886047 2452.062012,742.640503 
	C2442.244873,742.640503 2433.177734,742.640503 2423.003418,742.640503 
	C2414.277344,722.039490 2405.270264,700.775696 2396.352295,679.721436 
	C2353.592773,679.721436 2311.685547,679.721436 2269.441650,679.721436 
	C2260.732666,700.701233 2252.112549,721.467041 2243.039307,743.324829 
	C2239.718262,743.324829 2236.166260,743.324829 2231.729492,743.324829 
M2370.646484,655.286926 
	C2375.475830,655.286926 2380.305176,655.286926 2386.459717,655.286926 
	C2368.485352,611.949158 2351.083252,569.991028 2332.940186,526.246704 
	C2314.710449,570.229248 2297.285645,612.269104 2279.455811,655.286865 
	C2310.309326,655.286865 2339.525146,655.286865 2370.646484,655.286926 
z"/>
<path fill="#F8F8F8" opacity="1.000000" stroke="none" 
	d="
M1710.368164,556.002197 
	C1710.368164,571.941467 1710.368164,586.881409 1710.368164,602.880249 
	C1750.507202,602.880249 1789.952148,602.880249 1829.876465,602.880249 
	C1829.876465,611.068115 1829.876465,618.192688 1829.876465,625.876648 
	C1790.313110,625.876648 1751.091919,625.876648 1711.120850,625.876648 
	C1711.120850,657.191162 1711.120850,687.951477 1711.120850,719.663208 
	C1754.285645,719.663208 1797.718750,719.663208 1841.756104,719.663208 
	C1841.756104,727.736206 1841.756104,734.886841 1841.756104,742.684814 
	C1789.696655,742.684814 1737.603027,742.684814 1684.904297,742.684814 
	C1684.904297,660.718750 1684.904297,578.977966 1684.904297,496.649902 
	C1735.770508,496.649902 1786.539062,496.649902 1837.839111,496.649902 
	C1837.839111,503.890137 1837.839111,511.052643 1837.839111,519.253540 
	C1795.576172,519.253540 1753.443848,519.253540 1710.368164,519.253540 
	C1710.368164,531.849792 1710.368164,543.426331 1710.368164,556.002197 
z"/>
<path fill="#F9F9F9" opacity="1.000000" stroke="none" 
	d="
M2185.017090,731.105042 
	C2145.107910,763.013794 2075.543213,752.293579 2049.463623,712.534546 
	C2056.481201,707.218628 2063.552979,701.861572 2070.502441,696.597290 
	C2076.679688,702.691040 2082.233154,709.271118 2088.853760,714.499939 
	C2111.308105,732.233765 2145.885986,731.043579 2167.056885,712.613953 
	C2187.037354,695.220520 2188.018555,658.690735 2161.539551,643.887268 
	C2154.341309,639.862854 2146.632812,636.653564 2138.936035,633.638000 
	C2123.184570,627.466492 2106.923584,622.482117 2091.510986,615.582275 
	C2047.988281,596.098328 2046.792358,542.364990 2071.696045,514.651917 
	C2080.238281,505.146149 2091.184326,498.531464 2103.516846,494.993652 
	C2137.067139,485.369202 2168.575928,488.420685 2196.552490,511.194366 
	C2198.350098,512.657654 2200.046631,514.276367 2201.605225,515.990845 
	C2202.683350,517.176575 2203.443115,518.651794 2204.795410,520.669922 
	C2198.156494,526.164917 2191.829834,531.401062 2184.931641,537.110596 
	C2181.606689,533.799133 2178.466797,530.498230 2175.145020,527.391357 
	C2151.262939,505.053955 2111.674072,509.285309 2093.587402,528.482178 
	C2075.915039,547.239502 2077.620361,575.462219 2099.052002,589.947266 
	C2108.221191,596.144531 2119.224854,599.776672 2129.654053,603.922668 
	C2142.284424,608.943542 2155.427490,612.717651 2167.907471,618.061646 
	C2180.207031,623.328430 2191.170410,630.779785 2198.639648,642.493958 
	C2214.481689,667.339600 2210.934082,704.398132 2190.507812,725.695068 
	C2188.894043,727.377625 2187.210205,728.992981 2185.017090,731.105042 
z"/>
<path fill="#F9F9F9" opacity="1.000000" stroke="none" 
	d="
M1523.379395,678.865356 
	C1500.023315,617.789612 1477.021118,557.408569 1453.777710,496.394043 
	C1463.910034,496.394043 1472.816895,496.394043 1482.222168,496.394043 
	C1508.477173,566.625671 1534.687256,636.737488 1560.897339,706.849243 
	C1561.554565,706.939941 1562.211670,707.030579 1562.868896,707.121216 
	C1576.469727,672.194336 1589.271118,636.959351 1602.314941,601.812683 
	C1615.351562,566.684937 1628.720459,531.680481 1642.019897,496.419678 
	C1651.215088,496.419678 1660.095459,496.419678 1670.022583,496.419678 
	C1638.433838,578.993408 1607.063354,660.996826 1575.685791,743.018677 
	C1566.325806,743.018677 1557.696411,743.018677 1547.797119,743.018677 
	C1539.904175,722.204163 1531.818848,700.882141 1523.379395,678.865356 
z"/>
<path fill="#F9F9F9" opacity="1.000000" stroke="none" 
	d="
M2790.239014,522.088501 
	C2795.888184,513.039185 2801.131348,504.592529 2806.168701,496.477417 
	C2816.367432,496.477417 2825.868652,496.477417 2836.636719,496.477417 
	C2830.616455,505.902191 2825.234131,514.535645 2819.648926,523.035645 
	C2795.739258,559.423035 2771.816162,595.802124 2747.752686,632.087646 
	C2745.236572,635.881714 2744.262939,639.619202 2744.286133,644.117249 
	C2744.438232,673.430603 2744.364258,702.745178 2744.364258,732.059326 
	C2744.364258,735.366821 2744.364258,738.674316 2744.364258,742.650269 
	C2735.719727,742.650269 2727.611816,742.650269 2718.771973,742.650269 
	C2718.610596,739.610107 2718.328125,736.726257 2718.324951,733.842102 
	C2718.292480,704.194824 2718.222168,674.547119 2718.382568,644.900696 
	C2718.410889,639.678528 2717.052002,635.439087 2714.126221,631.039490 
	C2686.152588,588.969421 2658.413086,546.743713 2630.620850,504.552856 
	C2629.185059,502.373199 2627.884766,500.104523 2625.907227,496.874054 
	C2637.157715,496.874054 2647.502930,496.874054 2658.600342,496.874054 
	C2682.545410,535.376709 2706.834717,574.433289 2731.932129,614.788940 
	C2751.791016,583.201355 2770.812012,552.946228 2790.239014,522.088501 
z"/>
<path fill="#EBEAEA" opacity="1.000000" stroke="none" 
	d="
M1377.556763,854.649292 
	C1377.556763,850.476501 1377.556763,847.223938 1377.556763,843.152649 
	C1396.955566,843.152649 1415.512207,842.869446 1434.053223,843.282166 
	C1442.289551,843.465576 1450.764282,844.087158 1458.636353,846.282654 
	C1466.135376,848.373962 1473.755371,851.737549 1479.991821,856.343262 
	C1502.390625,872.885132 1501.200073,917.850952 1469.930298,932.048218 
	C1466.338379,933.679016 1462.696167,935.198853 1459.913452,936.407043 
	C1468.258057,940.796753 1477.587524,944.653503 1485.768555,950.203125 
	C1511.392456,967.585022 1513.255005,1019.153198 1478.093750,1035.297729 
	C1469.224976,1039.369873 1459.215210,1042.589600 1449.581909,1043.040771 
	C1426.021606,1044.144043 1402.375000,1043.400879 1377.556763,1043.400879 
	C1377.556763,980.485718 1377.556763,918.027527 1377.556763,854.649292 
M1488.231812,963.070557 
	C1479.426758,951.841980 1467.959839,945.279297 1453.848877,943.109497 
	C1431.438110,939.663391 1408.982910,942.296021 1386.320312,941.285278 
	C1386.320312,973.834839 1386.320312,1005.267029 1386.320312,1037.159180 
	C1402.150391,1037.159180 1417.443604,1037.551147 1432.704468,1037.018677 
	C1442.580566,1036.674194 1452.637939,1035.942505 1462.209961,1033.676880 
	C1479.545410,1029.573608 1492.078369,1019.367371 1496.012207,1001.107605 
	C1498.836060,988.000549 1496.544067,975.575439 1488.231812,963.070557 
M1416.988647,849.412842 
	C1406.788818,849.412842 1396.589111,849.412842 1386.134155,849.412842 
	C1386.134155,878.067688 1386.134155,905.585571 1386.134155,932.927490 
	C1387.071411,933.379150 1387.639648,933.890747 1388.210205,933.893372 
	C1403.541748,933.964050 1418.894897,934.477417 1434.196655,933.814941 
	C1442.704346,933.446655 1451.540161,932.259216 1459.501465,929.410400 
	C1476.260254,923.413513 1488.954224,909.542175 1487.684326,888.393311 
	C1486.666992,871.449524 1476.543457,859.383057 1457.431396,853.456482 
	C1444.828247,849.548279 1431.886963,849.867371 1416.988647,849.412842 
z"/>
<path fill="#EAEDED" opacity="1.000000" stroke="none" 
	d="
M1648.509399,222.509033 
	C1672.184204,199.884811 1700.131592,190.271317 1731.717041,192.142334 
	C1779.965698,195.000427 1817.541626,226.224533 1828.227661,272.825928 
	C1836.003906,306.738312 1831.875610,338.890564 1811.753662,367.767090 
	C1791.771851,396.442474 1763.264526,410.042297 1728.690430,411.374451 
	C1706.575684,412.226532 1685.849121,407.282623 1666.941528,395.522827 
	C1640.150391,378.859802 1625.318237,354.155457 1619.806030,323.677277 
	C1616.836548,307.258942 1617.315796,290.664459 1620.866211,274.269684 
	C1625.114990,254.650482 1634.448486,237.706604 1648.509399,222.509033 
M1669.135376,388.096954 
	C1687.471924,400.352264 1707.671265,404.992096 1729.635010,404.129974 
	C1758.164307,403.010162 1781.865479,392.131073 1800.131592,370.359009 
	C1818.446533,348.528381 1825.325195,322.859863 1823.610962,294.597931 
	C1821.812744,264.953644 1810.241943,240.000473 1787.416870,220.977448 
	C1763.714844,201.223709 1735.723877,195.826706 1705.962158,200.763550 
	C1684.804443,204.273163 1666.405762,214.353104 1651.937622,230.478256 
	C1612.353638,274.595886 1617.056396,351.976471 1669.135376,388.096954 
z"/>
<path fill="#EAEDED" opacity="1.000000" stroke="none" 
	d="
M1554.525024,274.234680 
	C1544.217407,290.834991 1529.131714,298.001190 1511.095337,300.189331 
	C1508.181030,300.542816 1505.303101,301.197540 1501.086914,301.948334 
	C1521.719727,336.440430 1541.901123,370.178192 1562.117188,403.973663 
	C1555.616699,407.475891 1553.068604,403.868195 1550.494141,399.542053 
	C1533.180908,370.447357 1515.770508,341.410431 1498.380981,312.361176 
	C1496.340088,308.952148 1494.234009,305.582275 1491.961548,301.873230 
	C1476.406860,301.873230 1460.886841,301.873230 1444.661377,301.873230 
	C1444.661377,336.176025 1444.661377,370.032318 1444.661377,404.632019 
	C1441.637207,404.632019 1439.312622,404.632019 1436.610474,404.632019 
	C1436.610474,335.922363 1436.610474,267.702148 1436.610474,198.735672 
	C1439.123169,198.494461 1441.640381,198.050949 1444.159058,198.043137 
	C1463.152710,197.984238 1482.150024,197.803711 1501.139526,198.092087 
	C1511.783691,198.253754 1522.367920,199.700577 1532.215576,204.100754 
	C1549.608276,211.872208 1558.755859,225.445480 1559.747803,244.456741 
	C1560.271973,254.503387 1559.694092,264.397736 1554.525024,274.234680 
M1552.193848,243.764511 
	C1550.847290,231.520889 1545.339355,221.490555 1535.082764,214.747681 
	C1525.770752,208.625839 1515.069336,205.864914 1503.965820,205.459579 
	C1486.378052,204.817581 1468.776733,204.533432 1451.179077,204.201035 
	C1449.018433,204.160233 1446.845947,204.752930 1444.948242,205.014877 
	C1444.948242,235.264114 1444.948242,264.789612 1444.948242,294.229248 
	C1457.155396,295.998383 1501.385620,295.386505 1512.046509,293.321594 
	C1524.337891,290.940857 1535.565308,286.800354 1543.779053,276.429840 
	C1551.086304,267.203735 1552.712769,256.734985 1552.193848,243.764511 
z"/>
<path fill="#E7E4E4" opacity="1.000000" stroke="none" 
	d="
M2683.527588,293.998810 
	C2683.527588,261.715729 2683.527588,230.432693 2683.527588,198.567505 
	C2724.462158,198.567505 2764.866455,198.567505 2805.652100,198.567505 
	C2805.514160,200.821045 2805.400146,202.683365 2805.249512,205.144653 
	C2767.575684,205.144653 2730.352051,205.144653 2692.466309,205.144653 
	C2692.466309,234.858078 2692.466309,263.947113 2692.466309,293.596405 
	C2727.357178,293.596405 2762.223633,293.596405 2797.723633,293.596405 
	C2797.909424,296.211121 2798.059082,298.318848 2798.257324,301.112305 
	C2762.825195,301.112305 2727.985596,301.112305 2692.474854,301.112305 
	C2692.474854,333.854950 2692.474854,365.960632 2692.474854,398.976318 
	C2731.336670,398.976318 2770.133545,398.976318 2808.539795,398.976318 
	C2810.396973,402.902313 2810.057861,405.046570 2806.186279,405.376312 
	C2804.862305,405.489075 2803.524658,405.455139 2802.193115,405.455231 
	C2764.557129,405.457977 2726.921143,405.461426 2689.285156,405.438965 
	C2687.677490,405.437988 2686.069580,405.191071 2683.527588,404.981873 
	C2683.527588,368.135529 2683.527588,331.567200 2683.527588,293.998810 
z"/>
<path fill="#E7E4E4" opacity="1.000000" stroke="none" 
	d="
M1290.002563,293.982361 
	C1314.315063,293.982361 1337.628052,293.982361 1361.628418,293.982361 
	C1361.855835,296.116852 1362.077515,298.198242 1362.378296,301.021545 
	C1326.944458,301.021545 1292.114136,301.021545 1256.543213,301.021545 
	C1256.543213,333.764587 1256.543213,365.845428 1256.543213,398.858398 
	C1295.241333,398.858398 1334.027100,398.858398 1372.381714,398.858398 
	C1374.394287,402.706390 1374.225098,404.889923 1370.345581,405.354401 
	C1369.029907,405.511871 1367.685669,405.454315 1366.354492,405.454437 
	C1328.385376,405.457214 1290.416382,405.458679 1252.447266,405.436249 
	C1251.147339,405.435455 1249.847656,405.185577 1248.048340,405.000366 
	C1248.048340,336.327606 1248.048340,267.816772 1248.048340,198.643463 
	C1288.374146,198.643463 1328.750366,198.643463 1369.335693,198.643463 
	C1369.335693,200.716049 1369.335693,202.571457 1369.335693,205.062866 
	C1331.711548,205.062866 1294.484375,205.062866 1256.529785,205.062866 
	C1256.529785,234.765656 1256.529785,263.846741 1256.529785,293.982361 
	C1267.232544,293.982361 1278.117676,293.982361 1290.002563,293.982361 
z"/>
<path fill="#EBEFEF" opacity="1.000000" stroke="none" 
	d="
M2391.263428,366.379120 
	C2396.684082,379.287445 2401.709473,391.539795 2406.863037,404.103668 
	C2401.270996,406.981018 2398.700928,404.693634 2396.810547,400.058228 
	C2390.671143,385.004639 2384.402832,370.003479 2378.160645,354.991852 
	C2377.025391,352.261780 2375.779785,349.577728 2374.462158,346.593811 
	C2335.054443,346.593811 2295.822510,346.593811 2255.743652,346.593811 
	C2250.659180,358.376556 2245.422363,370.525574 2240.173584,382.669586 
	C2237.542725,388.756073 2234.969238,394.869263 2232.220215,400.902313 
	C2230.414307,404.865875 2230.294922,404.811462 2222.261230,404.636749 
	C2252.221436,335.501465 2281.943115,266.915894 2311.651855,198.361038 
	C2315.154053,198.361038 2318.082031,198.361038 2321.389160,198.361038 
	C2344.591797,254.251587 2367.730225,309.987366 2391.263428,366.379120 
M2303.457520,234.588272 
	C2288.414795,269.365295 2273.415039,304.160065 2258.776611,339.735779 
	C2297.187988,339.735779 2334.065674,339.735779 2372.125488,339.735779 
	C2353.635742,294.995056 2335.420654,250.919312 2317.205811,206.843552 
	C2316.507324,206.858002 2315.808838,206.872467 2315.110352,206.886917 
	C2311.423340,215.648697 2307.736572,224.410477 2303.457520,234.588272 
z"/>
<path fill="#EBEFEF" opacity="1.000000" stroke="none" 
	d="
M1034.221680,368.475006 
	C1029.545166,379.556061 1024.799316,389.793457 1020.661987,400.271149 
	C1018.780884,405.035126 1016.216309,406.360352 1010.431335,404.231232 
	C1040.142334,335.671814 1069.758911,267.330414 1099.577026,198.523880 
	C1102.564209,198.320068 1105.433472,198.124298 1109.126221,197.872330 
	C1137.775757,266.721588 1166.365479,335.427246 1194.979980,404.192383 
	C1188.334839,407.239441 1186.249634,403.762878 1184.473022,399.429657 
	C1177.675415,382.850189 1170.813599,366.296997 1163.960938,349.740143 
	C1163.588989,348.841675 1163.081909,347.999115 1162.406372,346.678131 
	C1123.293945,346.678131 1084.069092,346.678131 1043.899536,346.678131 
	C1040.901123,353.323242 1037.651001,360.526337 1034.221680,368.475006 
M1143.692139,299.596497 
	C1130.828247,268.675873 1117.964355,237.755264 1105.100464,206.834656 
	C1104.411255,206.882141 1103.722046,206.929642 1103.032837,206.977142 
	C1084.314575,250.985092 1065.596436,294.993042 1046.693481,339.435486 
	C1085.086670,339.435486 1122.098877,339.435486 1159.928833,339.435486 
	C1154.470459,326.116974 1149.334961,313.586273 1143.692139,299.596497 
z"/>
<path fill="#EBEFEF" opacity="1.000000" stroke="none" 
	d="
M2617.845703,387.980835 
	C2601.081787,403.159821 2581.223145,409.533417 2560.088379,411.180908 
	C2530.550781,413.483429 2503.578857,406.074951 2480.616211,386.289185 
	C2466.077393,373.761536 2456.369385,358.210388 2450.930664,340.032532 
	C2441.968262,310.077362 2442.456299,280.257141 2455.400391,251.562637 
	C2469.789795,219.663208 2495.101074,200.793335 2529.261475,194.068848 
	C2555.271729,188.948715 2580.243652,192.383820 2603.381104,205.722870 
	C2609.323975,209.149109 2614.490967,213.921341 2620.472168,218.419403 
	C2618.736816,220.805664 2617.650879,222.298874 2616.433838,223.972458 
	C2615.324951,223.534775 2614.304688,223.409851 2613.681885,222.845749 
	C2592.655518,203.802368 2567.512451,196.880005 2539.964111,199.755051 
	C2502.793457,203.634293 2475.849854,223.357513 2461.655029,257.767731 
	C2445.128906,297.828644 2449.261963,336.582825 2476.689209,370.873749 
	C2494.135254,392.685669 2517.916504,403.410553 2546.234863,404.137756 
	C2566.383057,404.655090 2585.226318,400.804382 2602.259033,389.983002 
	C2608.610107,385.947754 2614.123779,380.594452 2620.541992,375.420715 
	C2621.693359,376.312408 2623.172607,377.458282 2625.515137,379.272766 
	C2622.989502,382.275055 2620.725586,384.966217 2617.845703,387.980835 
z"/>
<path fill="#EBEFEF" opacity="1.000000" stroke="none" 
	d="
M1245.492310,852.271729 
	C1271.990234,915.967163 1298.233887,978.953308 1324.458008,1041.892700 
	C1317.981323,1045.298218 1316.047485,1041.884521 1314.226440,1037.379272 
	C1308.259521,1022.616638 1302.073975,1007.942322 1295.972778,993.233887 
	C1295.087891,991.101013 1294.204468,988.967590 1293.197266,986.537598 
	C1255.200439,986.537598 1217.267944,986.537598 1178.473267,986.537598 
	C1171.927612,1001.699341 1165.241699,1017.171570 1158.571777,1032.650635 
	C1157.521606,1035.087769 1156.524902,1037.548584 1155.538208,1040.012207 
	C1153.838379,1044.255737 1150.764038,1043.596436 1146.100098,1042.578613 
	C1175.002075,975.886658 1203.583862,909.933533 1232.314575,843.636658 
	C1235.339722,843.636658 1238.242676,843.636658 1241.640015,843.636658 
	C1242.806152,846.205383 1244.022095,848.883911 1245.492310,852.271729 
M1260.986206,980.023560 
	C1270.489990,980.023560 1279.993652,980.023560 1290.811035,980.023560 
	C1272.748413,936.300598 1255.212524,893.852783 1236.807251,849.300476 
	C1217.879150,893.747864 1199.776489,936.256714 1181.138062,980.023560 
	C1208.021851,980.023560 1233.505981,980.023560 1260.986206,980.023560 
z"/>
<path fill="#EAEDED" opacity="1.000000" stroke="none" 
	d="
M1961.330444,308.306458 
	C1948.205444,303.328339 1935.598022,299.101349 1923.518677,293.694611 
	C1903.659302,284.805450 1893.584839,268.895111 1893.658936,247.175217 
	C1893.733887,225.156570 1904.177490,209.159149 1923.877930,199.470932 
	C1952.291138,185.498001 1991.771851,191.240845 2011.519531,215.083130 
	C2009.966919,216.755005 2008.334229,218.513000 2006.337769,220.662689 
	C1997.210205,210.838242 1986.685181,204.169968 1974.096680,201.237823 
	C1953.543213,196.450455 1934.309814,199.658112 1917.342529,212.406357 
	C1897.599854,227.239731 1893.343994,264.045868 1920.494263,282.735321 
	C1932.491577,290.993927 1946.534546,294.197693 1959.641235,299.723328 
	C1971.229736,304.608826 1983.052246,309.185120 1994.009644,315.269989 
	C2016.790405,327.920776 2021.534424,359.150238 2008.994263,382.059601 
	C1998.777222,400.725067 1981.611206,409.075226 1961.679321,411.116730 
	C1937.394165,413.604126 1914.798462,408.014587 1895.645874,391.762543 
	C1893.634521,390.055817 1891.270142,388.765045 1889.399414,387.503876 
	C1892.417725,381.824646 1894.427734,380.248077 1898.750610,383.604034 
	C1905.009399,388.463074 1911.365112,393.638580 1918.503540,396.842682 
	C1942.381104,407.559906 1966.038330,407.862274 1988.844116,393.180878 
	C2009.478638,379.897186 2018.376465,341.483124 1989.690186,322.006714 
	C1981.303833,316.312805 1971.330933,312.955750 1961.330444,308.306458 
z"/>
<path fill="#EFF2F2" opacity="1.000000" stroke="none" 
	d="
M2088.831055,198.032501 
	C2108.068848,198.030945 2126.385742,197.828278 2144.695801,198.102646 
	C2156.725342,198.282898 2168.500488,200.376495 2179.304443,206.033203 
	C2194.925049,214.211868 2203.223633,226.838577 2204.559326,244.829620 
	C2207.611328,285.938080 2176.226318,303.353424 2147.268799,304.078217 
	C2131.628418,304.469696 2115.970459,304.148285 2100.320312,304.148468 
	C2097.741699,304.148499 2095.163330,304.148468 2091.705566,304.148468 
	C2091.705566,338.120422 2091.705566,371.254486 2091.705566,404.852844 
	C2088.651611,404.852844 2086.486084,404.852844 2083.589111,404.852844 
	C2083.589111,401.504120 2083.588867,398.553253 2083.588867,395.602417 
	C2083.588867,333.002014 2083.585693,270.401642 2083.600586,207.801254 
	C2083.601318,205.148392 2083.441406,202.416595 2084.045410,199.885986 
	C2084.253906,199.011307 2086.559570,198.636902 2088.831055,198.032501 
M2195.290039,265.517944 
	C2195.631104,263.557190 2195.934814,261.589142 2196.318359,259.636719 
	C2201.883057,231.306915 2186.616943,211.666260 2159.058594,206.334778 
	C2137.090088,202.084671 2114.762451,204.665100 2092.194824,204.049942 
	C2092.194824,235.476730 2092.194824,265.963135 2092.194824,297.177246 
	C2112.245361,297.177246 2131.904785,298.235626 2151.396973,296.880737 
	C2171.037354,295.515564 2187.154785,286.983521 2195.290039,265.517944 
z"/>
<path fill="#EBEAEA" opacity="1.000000" stroke="none" 
	d="
M1009.556763,880.002441 
	C1009.556824,867.384766 1009.556824,855.765930 1009.556824,843.671997 
	C1012.380798,843.671997 1014.548767,843.671997 1017.691895,843.671997 
	C1017.691895,908.047363 1017.691895,972.185059 1017.691895,1037.004761 
	C1050.838867,1037.004761 1083.034180,1037.004761 1115.485107,1037.004761 
	C1116.791138,1040.865356 1116.975464,1043.362305 1112.358154,1043.406250 
	C1108.692993,1043.441040 1105.027100,1043.418945 1101.361572,1043.419067 
	C1074.369385,1043.419678 1047.377075,1043.419434 1020.384888,1043.419434 
	C1017.104675,1043.419434 1013.824463,1043.419434 1009.556763,1043.419434 
	C1009.556763,988.825806 1009.556763,934.913574 1009.556763,880.002441 
z"/>
<path fill="#E7E4E4" opacity="1.000000" stroke="none" 
	d="
M469.257141,928.026062 
	C470.111755,928.262451 470.483215,928.806885 471.318176,929.600830 
	C469.617035,932.653259 467.517609,935.411743 465.418152,938.170227 
	C464.942841,937.896545 464.467560,937.622925 463.992279,937.349304 
	C465.564453,934.359070 467.136597,931.368835 469.257141,928.026062 
z"/>
<path fill="#010101" opacity="1.000000" stroke="none" 
	d="
M1422.049561,584.370544 
	C1433.964355,620.465576 1429.612427,653.438965 1406.402710,682.876465 
	C1388.803955,705.197510 1364.523804,716.740173 1336.739502,718.924866 
	C1314.947388,720.638428 1292.912964,719.268616 1270.338379,719.268616 
	C1270.338379,653.257507 1270.338379,586.860657 1270.338379,519.657532 
	C1272.823120,519.545959 1275.361328,519.269348 1277.888916,519.344238 
	C1298.475952,519.953674 1319.235229,519.167175 1339.609253,521.597107 
	C1378.550781,526.241455 1406.681885,546.690125 1422.049561,584.370544 
z"/>
<path fill="#010101" opacity="1.000000" stroke="none" 
	d="
M1991.065430,593.139038 
	C1980.117310,601.774658 1967.767578,604.617004 1955.113525,605.091125 
	C1936.941528,605.771973 1918.725098,605.264832 1900.186279,605.264832 
	C1900.186279,576.846558 1900.186279,548.430847 1900.186279,519.163574 
	C1923.819092,520.386292 1947.075073,516.846069 1970.061646,521.755554 
	C1985.084229,524.964050 1997.054810,532.121399 2002.778564,547.569397 
	C2008.817993,563.869141 2003.538574,584.441284 1991.065430,593.139038 
z"/>
<path fill="#010101" opacity="1.000000" stroke="none" 
	d="
M2600.318115,553.960876 
	C2604.737061,576.407471 2592.969238,593.948914 2575.283691,599.805054 
	C2566.582031,602.686462 2557.288330,604.737244 2548.165771,605.183594 
	C2531.007568,606.022888 2513.778809,605.425537 2496.151611,605.425537 
	C2496.151611,576.907837 2496.151611,548.505859 2496.151611,519.155762 
	C2519.727295,520.360596 2542.952881,516.878967 2565.922119,521.717163 
	C2583.427979,525.404602 2596.379639,534.421570 2600.318115,553.960876 
z"/>
<path fill="#050606" opacity="1.000000" stroke="none" 
	d="
M1058.041992,644.077026 
	C1074.310059,604.885559 1090.306519,566.408813 1106.979370,526.305054 
	C1125.054077,569.893433 1142.424438,611.783630 1160.177856,654.597351 
	C1124.554688,654.597351 1089.863892,654.597351 1054.005859,654.597351 
	C1055.268799,651.307556 1056.519409,648.049683 1058.041992,644.077026 
z"/>
<path fill="#050606" opacity="1.000000" stroke="none" 
	d="
M2369.693604,655.286865 
	C2339.525146,655.286865 2310.309326,655.286865 2279.455811,655.286865 
	C2297.285645,612.269104 2314.710449,570.229248 2332.940186,526.246704 
	C2351.083252,569.991028 2368.485352,611.949158 2386.459717,655.286926 
	C2380.305176,655.286926 2375.475830,655.286926 2369.693604,655.286865 
z"/>
<path fill="#010101" opacity="1.000000" stroke="none" 
	d="
M1488.695801,963.650635 
	C1496.544067,975.575439 1498.836060,988.000549 1496.012207,1001.107605 
	C1492.078369,1019.367371 1479.545410,1029.573608 1462.209961,1033.676880 
	C1452.637939,1035.942505 1442.580566,1036.674194 1432.704468,1037.018677 
	C1417.443604,1037.551147 1402.150391,1037.159180 1386.320312,1037.159180 
	C1386.320312,1005.267029 1386.320312,973.834839 1386.320312,941.285278 
	C1408.982910,942.296021 1431.438110,939.663391 1453.848877,943.109497 
	C1467.959839,945.279297 1479.426758,951.841980 1488.695801,963.650635 
z"/>
<path fill="#010101" opacity="1.000000" stroke="none" 
	d="
M1417.983154,849.412842 
	C1431.886963,849.867371 1444.828247,849.548279 1457.431396,853.456482 
	C1476.543457,859.383057 1486.666992,871.449524 1487.684326,888.393311 
	C1488.954224,909.542175 1476.260254,923.413513 1459.501465,929.410400 
	C1451.540161,932.259216 1442.704346,933.446655 1434.196655,933.814941 
	C1418.894897,934.477417 1403.541748,933.964050 1388.210205,933.893372 
	C1387.639648,933.890747 1387.071411,933.379150 1386.134155,932.927490 
	C1386.134155,905.585571 1386.134155,878.067688 1386.134155,849.412842 
	C1396.589111,849.412842 1406.788818,849.412842 1417.983154,849.412842 
z"/>
<path fill="#010101" opacity="1.000000" stroke="none" 
	d="
M1668.503174,387.733917 
	C1617.056396,351.976471 1612.353638,274.595886 1651.937622,230.478256 
	C1666.405762,214.353104 1684.804443,204.273163 1705.962158,200.763550 
	C1735.723877,195.826706 1763.714844,201.223709 1787.416870,220.977448 
	C1810.241943,240.000473 1821.812744,264.953644 1823.610962,294.597931 
	C1825.325195,322.859863 1818.446533,348.528381 1800.131592,370.359009 
	C1781.865479,392.131073 1758.164307,403.010162 1729.635010,404.129974 
	C1707.671265,404.992096 1687.471924,400.352264 1668.503174,387.733917 
z"/>
<path fill="#040404" opacity="1.000000" stroke="none" 
	d="
M1552.221436,244.652405 
	C1552.712769,256.734985 1551.086304,267.203735 1543.779053,276.429840 
	C1535.565308,286.800354 1524.337891,290.940857 1512.046509,293.321594 
	C1501.385620,295.386505 1457.155396,295.998383 1444.948242,294.229248 
	C1444.948242,264.789612 1444.948242,235.264114 1444.948242,205.014877 
	C1446.845947,204.752930 1449.018433,204.160233 1451.179077,204.201035 
	C1468.776733,204.533432 1486.378052,204.817581 1503.965820,205.459579 
	C1515.069336,205.864914 1525.770752,208.625839 1535.082764,214.747681 
	C1545.339355,221.490555 1550.847290,231.520889 1552.221436,244.652405 
z"/>
<path fill="#030202" opacity="1.000000" stroke="none" 
	d="
M2303.753662,233.880264 
	C2307.736572,224.410477 2311.423340,215.648697 2315.110352,206.886917 
	C2315.808838,206.872467 2316.507324,206.858002 2317.205811,206.843552 
	C2335.420654,250.919312 2353.635742,294.995056 2372.125488,339.735779 
	C2334.065674,339.735779 2297.187988,339.735779 2258.776611,339.735779 
	C2273.415039,304.160065 2288.414795,269.365295 2303.753662,233.880264 
z"/>
<path fill="#030202" opacity="1.000000" stroke="none" 
	d="
M1143.945801,300.326050 
	C1149.334961,313.586273 1154.470459,326.116974 1159.928833,339.435486 
	C1122.098877,339.435486 1085.086670,339.435486 1046.693481,339.435486 
	C1065.596436,294.993042 1084.314575,250.985092 1103.032837,206.977142 
	C1103.722046,206.929642 1104.411255,206.882141 1105.100464,206.834656 
	C1117.964355,237.755264 1130.828247,268.675873 1143.945801,300.326050 
z"/>
<path fill="#030202" opacity="1.000000" stroke="none" 
	d="
M1259.988159,980.023560 
	C1233.505981,980.023560 1208.021851,980.023560 1181.138062,980.023560 
	C1199.776489,936.256714 1217.879150,893.747864 1236.807251,849.300476 
	C1255.212524,893.852783 1272.748413,936.300598 1290.811035,980.023560 
	C1279.993652,980.023560 1270.489990,980.023560 1259.988159,980.023560 
z"/>
<path fill="#040404" opacity="1.000000" stroke="none" 
	d="
M2194.878418,266.201294 
	C2187.154785,286.983521 2171.037354,295.515564 2151.396973,296.880737 
	C2131.904785,298.235626 2112.245361,297.177246 2092.194824,297.177246 
	C2092.194824,265.963135 2092.194824,235.476730 2092.194824,204.049942 
	C2114.762451,204.665100 2137.090088,202.084671 2159.058594,206.334778 
	C2186.616943,211.666260 2201.883057,231.306915 2196.318359,259.636719 
	C2195.934814,261.589142 2195.631104,263.557190 2194.878418,266.201294 
z"/>
</svg>