<?xml version="1.0" encoding="UTF-8"?>
<svg id="Layer_2" data-name="Layer 2" xmlns="http://www.w3.org/2000/svg" viewBox="0 0 405.36 147">
  <defs>
    <style>
      .cls-1 {
        fill: none;
        stroke: #a7a9ac;
        stroke-miterlimit: 10;
        stroke-width: 3px;
      }

      .cls-2 {
        letter-spacing: -.04em;
      }

      .cls-3, .cls-4, .cls-5 {
        fill: #fff;
      }

      .cls-6 {
        fill: #a8a9ac;
      }

      .cls-4 {
        font-size: 54.76px;
      }

      .cls-7 {
        fill: #a7a9ac;
        font-size: 65.71px;
      }

      .cls-5 {
        font-size: 53px;
      }

      .cls-5, .cls-8 {
        font-family: GillSans-Light, 'Gill Sans';
        font-weight: 300;
      }
    </style>
  </defs>
  <g id="Layer_2-2" data-name="Layer 2">
    <g>
      <text class="cls-5" transform="translate(70.44 59.43)"><tspan x="0" y="0">the aerospace</tspan></text>
      <text class="cls-8" transform="translate(0 46.18)"><tspan class="cls-4"><tspan x="0" y="0" xml:space="preserve">      </tspan></tspan><tspan class="cls-7"><tspan x="32.94" y="76.67" xml:space="preserve">  </tspan><tspan class="cls-2" x="69.46" y="76.67">D</tspan><tspan x="115.47" y="76.67">VERSA</tspan><tspan class="cls-2" x="299.07" y="76.67">R</tspan><tspan x="334.1" y="76.67">Y</tspan></tspan></text>
      <g>
        <g>
          <path class="cls-1" d="M46.93,47.25c.12,15.27-14.45,64.69-32.02,74.28"/>
          <line class="cls-1" x1="41.35" y1="74.3" x2="65.47" y2="122.44"/>
          <line class="cls-1" x1="51.46" y1="96.7" x2="33" y2="96.7"/>
        </g>
        <g>
          <polygon class="cls-3" points="43.6 47.66 43.38 45.4 45.95 44.13 46.54 46.97 43.6 47.66"/>
          <polygon class="cls-3" points="50.35 48.06 50.92 45.85 48.56 44.28 47.54 47.01 50.35 48.06"/>
          <path class="cls-6" d="M45.32,47.82l.39-7.78c.07-1.09,.39-2.15,.95-3.11l1.14-1.97,.66,1.35c.6,1.23,.86,2.59,.74,3.94l-.65,7.53-3.24,.04Z"/>
          <polygon class="cls-3" points="46.52 46.95 47.31 47 47.94 37.62 47.14 37.58 46.52 46.95"/>
        </g>
      </g>
    </g>
  </g>
</svg>