<?xml version="1.0" encoding="UTF-8"?>
<svg id="Layer_2" data-name="Layer 2" xmlns="http://www.w3.org/2000/svg" viewBox="0 0 169.75 169.66">
  <defs>
    <style>
      .cls-1 {
        fill: #ed1c24;
      }
    </style>
  </defs>
  <g id="Layer_2-2" data-name="Layer 2">
    <g>
      <path class="cls-1" d="M95.32,27.91c8.16,8.16,16.23,16.25,24.33,24.31,.66,.65,.51,.97-.06,1.52-3.23,3.19-6.4,6.43-9.64,9.61-1.49,1.46-3,1.44-4.5-.03-2.45-2.39-4.88-4.78-7.23-7.27-.84-.89-1.28-.73-2.03,.05-2.07,2.17-4.19,4.31-6.38,6.36-.94,.88-1.01,1.34-.03,2.3,5.76,5.65,11.45,11.38,17.15,17.09,2.12,2.12,2.11,3.36-.01,5.49-2.2,2.21-4.36,4.48-6.65,6.59-1.04,.95-.95,1.56,.08,2.3,.19,.14,.35,.32,.5,.5,1.61,1.9,3.08,3.09,6.14,2.41,4.5-1,8.8,2.65,9.37,7.02,.64,4.86-2.3,9.23-6.76,10.09-4.85,.92-9.23-1.82-10.36-6.51-.39-1.64-.34-3.3,.28-4.86,.33-.83,.15-1.27-.43-1.82-1.08-1-2.13-2.04-3.11-3.13-.63-.7-1.01-.68-1.66,0-2.33,2.42-4.73,4.77-7.11,7.13-1.89,1.87-3.2,1.87-5.1-.03-5.8-5.78-11.59-11.57-17.35-17.39-.77-.78-1.2-.94-2.04-.05-2.18,2.32-4.45,4.55-6.74,6.75-.68,.66-.64,1.03,.01,1.66,2.41,2.34,4.77,4.73,7.13,7.12,1.88,1.91,1.87,3.21-.03,5.13-3.03,3.05-6.11,6.05-9.09,9.15-.79,.82-1.18,.69-1.92-.05-7.68-7.73-15.38-15.44-23.11-23.12-.71-.71-.88-1.07-.06-1.87,3.18-3.07,6.25-6.25,9.39-9.36,1.65-1.64,3.05-1.63,4.73,.02,2.4,2.35,4.8,4.7,7.11,7.13,.83,.88,1.28,.76,2.04-.04,2.07-2.17,4.18-4.32,6.38-6.37,.94-.88,1-1.35,.03-2.31-5.72-5.61-11.36-11.3-17.02-16.97-2.26-2.26-2.24-3.44,.05-5.75,2.16-2.17,4.27-4.4,6.53-6.47,1.03-.94,.93-1.51-.07-2.26-.46-.35-.87-.8-1.23-1.26-1-1.27-.92-2.73,.17-3.83,1.07-1.08,2.62-1.23,3.81-.16,.82,.74,1.43,1.71,2.19,2.64,2.79-2.81,5.23-5.28,7.69-7.74,2.53-2.53,3.54-2.52,6.12,.06,5.58,5.58,11.19,11.14,16.72,16.77,.96,.98,1.43,.92,2.31-.03,2.05-2.19,4.19-4.31,6.36-6.38,.79-.76,.91-1.2,.04-2.02-2.4-2.27-4.69-4.64-7.01-6.98-1.82-1.84-1.82-3.16-.02-4.98,3.35-3.39,6.72-6.76,10.13-10.19Z"/>
      <path class="cls-1" d="M124.5,0c.96-.05,1.66,.45,2.3,1.09,6.78,6.79,13.57,13.56,20.34,20.36,1.54,1.54,1.58,3.09,.08,4.62-3.17,3.24-6.42,6.4-9.59,9.64-.62,.63-.96,.54-1.53-.04-7.81-7.84-15.62-15.67-23.48-23.46-.72-.71-.53-1.07,.07-1.66,3.19-3.14,6.34-6.31,9.5-9.47,.64-.64,1.34-1.15,2.31-1.08Z"/>
      <path class="cls-1" d="M23.93,148.27c-1.01-.06-1.71-.44-2.31-1.05-6.82-6.84-13.65-13.65-20.46-20.5-1.51-1.52-1.54-2.98-.08-4.47,3.17-3.24,6.41-6.41,9.58-9.64,.66-.67,1.03-.63,1.67,.02,7.76,7.8,15.54,15.59,23.36,23.34,.75,.74,.63,1.11-.05,1.78-3.11,3.04-6.18,6.14-9.25,9.23-.73,.74-1.53,1.28-2.45,1.28Z"/>
      <path class="cls-1" d="M109.58,169.66c-.53,0-1.06,0-1.59,0-2.06-.02-3.27-1.09-3.24-2.87,.03-1.71,1.17-2.74,3.15-2.79,7.22-.18,14.28-1.31,20.91-4.24,19.46-8.6,31.15-23.32,34.64-44.41,.41-2.5,.57-5.02,.64-7.55,.06-1.96,1.11-3.14,2.79-3.16,1.76-.02,2.85,1.2,2.87,3.25,.28,24.35-15.74,47.98-38.78,57.2-7.18,2.87-14.8,4.5-21.39,4.57Z"/>
      <path class="cls-1" d="M107.96,15.46c.31,.29,.56,.52,.8,.77,7.78,7.78,15.55,15.57,23.36,23.32,.65,.65,.69,1,.02,1.65-2.37,2.29-4.69,4.63-6.99,6.99-.62,.63-1,.72-1.67,.04-7.8-7.85-15.63-15.66-23.44-23.49-.34-.34-.92-.61-.27-1.25,2.56-2.52,5.08-5.07,7.63-7.6,.16-.16,.35-.27,.57-.44Z"/>
      <path class="cls-1" d="M24.06,99.3c.28,.25,.55,.46,.79,.71,7.83,7.82,15.65,15.65,23.5,23.46,.59,.59,.63,.95,.01,1.55-2.4,2.34-4.77,4.72-7.11,7.12-.57,.59-.9,.65-1.51,.04-7.85-7.89-15.72-15.75-23.6-23.6-.53-.53-.6-.85-.03-1.41,2.48-2.43,4.92-4.9,7.38-7.36,.16-.16,.34-.31,.58-.52Z"/>
      <path class="cls-1" d="M108.97,151.95c-.53,0-1.06,.04-1.59,0-1.63-.15-2.68-1.33-2.65-2.94,.03-1.55,1-2.65,2.63-2.72,4.65-.21,9.22-.8,13.65-2.37,14.16-5.02,24.13-18.13,25.12-33.14,.06-.94,.14-1.88,.2-2.82,.13-2.21,1.23-3.42,3.01-3.33,1.72,.09,2.75,1.35,2.71,3.44-.12,7.84-2,15.25-6.06,21.97-8.4,13.9-20.94,20.91-37.02,21.9Z"/>
      <path class="cls-1" d="M109.06,134.35c-.87,.02-1.77,.2-2.59-.23-1.36-.71-1.68-1.92-1.39-3.29,.31-1.48,1.38-2.14,2.83-2.13,8.57,.07,17.93-6.97,20.36-16.84,.31-1.25,.5-2.53,.51-3.83,.01-1.9,1.17-3.08,2.87-3.06,1.75,.02,2.77,1.16,2.79,3.12,.12,11.91-9.76,23.7-21.69,25.87-1.22,.22-2.43,.46-3.67,.4Z"/>
    </g>
  </g>
</svg>