<?xml version="1.0" encoding="UTF-8"?>
<svg id="Layer_2" data-name="Layer 2" xmlns="http://www.w3.org/2000/svg" viewBox="0 0 145.55 145.8">
  <defs>
    <style>
      .cls-1 {
        fill: #ed1c24;
      }
    </style>
  </defs>
  <g id="Layer_2-2" data-name="Layer 2">
    <g>
      <path class="cls-1" d="M114.58,145.8h-.28c-.54-.3-1.03-.65-1.47-1.09-11.16-11-22.35-21.97-33.38-33.11-.1-.1-.2-.2-.3-.3-1.32-1.35-1.33-1.56-.03-2.87,3.14-3.16,6.3-6.29,9.44-9.45,1.17-1.17,1.16-1.25,.04-2.38-1.06-1.08-2.19-2.1-3.2-3.23-.81-.9-1.38-.8-2.19,.02-4.59,4.65-9.23,9.26-13.85,13.88-4.55,4.55-9.1,9.11-13.66,13.66-1.41,1.41-1.59,1.42-2.96,.05-9.28-9.27-18.55-18.55-27.82-27.82-1.39-1.39-1.39-1.59-.01-2.97,9.07-9.08,18.15-18.15,27.22-27.22q1.42-1.42-.03-2.87c-.97-.97-1.98-1.9-2.9-2.92-.78-.87-1.38-.86-2.21-.02-3.11,3.18-6.28,6.31-9.43,9.45-1.47,1.46-1.63,1.47-3.07,.03-7.4-7.4-14.89-14.71-22.16-22.23-3.78-3.91-7.65-7.75-11.44-11.65-1.17-1.21-1.19-1.48,0-2.67,2.9-2.92,5.79-5.86,8.74-8.74C15.94,15.21,21.86,8.69,28.15,2.52c1.69-1.65,1.81-1.67,3.51,.03,11.08,11.08,22.17,22.16,33.25,33.25,1.67,1.67,1.67,1.78-.04,3.5-3.01,3.02-6.03,6.02-9.04,9.04-1.08,1.09-1.08,1.15,.02,2.27,1.06,1.08,2.14,2.15,3.21,3.21,1.09,1.08,1.1,1.08,2.24-.06,3.08-3.08,6.16-6.16,9.24-9.24,1.47-1.47,1.61-1.47,3.06-.02,3.12,3.11,6.23,6.23,9.34,9.34,1.17,1.17,1.24,1.17,2.37,.05,1.25-1.23,2.45-2.5,3.73-3.7,.76-.71,.83-1.34,.24-2.22-2.59-3.83-4.24-8.05-4.76-12.64-1.06-9.3,1.42-17.53,7.77-24.49,.83-.91,1.73-1.75,2.61-2.62,1.35-1.32,1.61-1.32,3,.06,4.96,4.95,9.91,9.91,14.87,14.86,.23,.23,.49,.45,.7,.71,.61,.74,1.16,.79,1.86,.05,1.5-1.58,3.06-3.1,4.61-4.63,.61-.6,.73-1.22,.45-2.05-2.26-6.68,.77-13.61,7.25-16.19C133.17-1.14,139.57,0,143.48,5.49c1.15,1.61,1.86,3.36,2.07,5.32v4.83c-.78,4.26-3.21,7.29-7.03,9.2-3,1.5-6.15,1.94-9.34,.74-1.27-.48-2.12-.27-3.01,.7-1.21,1.33-2.53,2.56-3.8,3.83q-1.3,1.3,.06,2.66c4.99,4.99,9.98,9.98,14.97,14.97,1.63,1.63,1.58,1.75,.03,3.41-4.46,4.8-9.73,8.27-16.18,9.72-8.15,1.83-15.79,.5-22.85-3.97-1.71-1.09-1.7-1.11-3.18,.37-1.11,1.1-2.17,2.25-3.33,3.3-.87,.79-.84,1.39,0,2.21,3.15,3.08,6.24,6.21,9.35,9.33,1.58,1.59,1.58,1.69,0,3.27-3.01,3.02-6.03,6.03-9.04,9.04q-1.25,1.26,.04,2.55c1.04,1.04,2.11,2.04,3.1,3.13,.75,.82,1.32,.81,2.1,0,2.98-3.05,6.01-6.04,9.03-9.05,.33-.33,.67-.67,1.03-.98,.55-.47,1.1-.49,1.66,0,.36,.31,.69,.65,1.03,.98,11.02,11.02,22.04,22.04,33.05,33.05,.3,.3,.6,.61,.89,.92,.59,.64,.58,1.27-.02,1.87-2.98,2.98-5.86,6.06-8.99,8.88-.95,.86-1.87,1.74-2.78,2.64-5.33,5.32-10.65,10.65-15.97,15.98-.54,.54-1.08,1.05-1.77,1.39Z"/>
      <path class="cls-1" d="M46.6,126.9c-5.6,1.88-11.36,3.79-17.11,5.73-.55,.19-.88,0-1.24-.37-4.88-4.89-9.77-9.78-14.66-14.66-.37-.37-.55-.7-.36-1.24,1.94-5.75,3.86-11.5,5.73-17.1,9.21,9.21,18.42,18.42,27.64,27.64Z"/>
    </g>
  </g>
</svg>