<?xml version="1.0" encoding="UTF-8"?>
<svg id="Layer_2" data-name="Layer 2" xmlns="http://www.w3.org/2000/svg" viewBox="0 0 183.2 182.82">
  <defs>
    <style>
      .cls-1 {
        fill: #ed1c24;
      }
    </style>
  </defs>
  <g id="Layer_2-2" data-name="Layer 2">
    <g>
      <path class="cls-1" d="M183.2,123.79c-7.52,7.55-15.02,15.12-22.56,22.64-1.21,1.21-2.52,1.13-3.82,0-.27-.23-.51-.5-.76-.76-11-11-22.01-22.01-33.01-33.01-2.15-2.16-2.16-3.21-.02-5.36,2.57-2.57,5.12-5.17,7.73-7.7,.76-.74,.98-1.17,.07-2.02-2.39-2.24-4.7-4.58-6.96-6.95-.79-.83-1.23-.87-2.06-.02-4.12,4.22-8.33,8.37-12.49,12.55-.42,.42-.78,.89-1.37,1.57-4.34-15.41-14-25.2-28.98-29.65,4.88-4.85,9.75-9.7,14.72-14.63-3.11-3.1-5.99-5.93-8.81-8.82-.69-.71-.96-.22-1.37,.19-2.74,2.74-5.47,5.49-8.22,8.22-1.82,1.81-3.03,1.81-4.85,0-11.18-11.17-22.35-22.34-33.51-33.52-1.83-1.84-1.84-3.01-.02-4.84,6.78-6.79,13.58-13.57,20.35-20.37,.4-.4,.99-.67,1.09-1.33h3.22c.93,.29,1.65,.85,2.34,1.54,10.53,10.55,21.07,21.09,31.61,31.63,.38,.38,.76,.76,1.1,1.18,1.55,1.94,1.53,3.43-.18,5.23-1.81,1.9-3.7,3.72-5.55,5.58q-1.51,1.52,.05,3.1c1.85,1.86,3.71,3.72,5.57,5.57,1.37,1.37,1.39,1.37,2.81-.05,7.04-7.04,14.09-14.08,21.12-21.13,.94-.94,1.95-1.73,3.21-2.2,2.12-.79,4.1-.55,5.95,.73,.98,.68,1.91,1.43,2.73,2.3,5.57,5.97,11.66,11.42,17.31,17.31,.21,.22,.42,.42,.63,.64,3.95,4.11,3.91,7.36-.14,11.41-6.91,6.92-13.83,13.83-20.74,20.75-1.55,1.55-1.55,1.57-.02,3.1,1.89,1.9,3.82,3.77,5.68,5.7,.81,.83,1.43,.82,2.23,0,1.91-1.97,3.85-3.91,5.82-5.82,2-1.93,3.52-1.95,5.64-.14,.45,.39,.87,.82,1.29,1.24,10.37,10.37,20.74,20.75,31.13,31.11,.85,.85,1.62,1.73,2.07,2.86v2.15Z"/>
      <path class="cls-1" d="M102.7,113.73c-.05,7.81-2.5,14.8-7.33,20.94-1.67,2.12-3.1,2.2-5.02,.28-14.16-14.15-28.32-28.31-42.48-42.48-1.88-1.88-1.82-3.26,.17-4.9,19.09-15.81,49.17-5.08,53.94,19.24,.45,2.28,.8,4.57,.72,6.91Z"/>
      <path class="cls-1" d="M.01,116.6c0-.72-.03-1.43,0-2.15,.07-1.67,1.28-2.95,2.88-3.1,1.52-.14,3,1.01,3.27,2.67,.43,2.65,.23,5.34,.58,8.01,2,15.37,8.74,28.24,20.2,38.63,9.24,8.37,20.12,13.32,32.4,15.26,2.83,.45,5.69,.5,8.55,.62,2.09,.09,3.34,1.15,3.58,2.81,.27,1.91-1.31,3.46-3.58,3.46-10.51-.03-20.53-2.31-29.87-7.12-19.7-10.15-31.95-26.1-36.68-47.77-.81-3.73-1.19-7.52-1.32-11.33Z"/>
      <path class="cls-1" d="M66.6,164.21c-22.12-.33-42.52-17.44-46.9-39.35-.64-3.22-1.09-6.45-1.08-9.74,.01-2.21,1.12-3.64,2.95-3.77,1.83-.13,3.33,1.33,3.35,3.59,.06,5.66,1.05,11.14,3.36,16.29,6.65,14.85,18,23.67,34.13,26.27,1.66,.27,3.32,.3,4.98,.37,2.6,.12,4.13,1.33,4.1,3.25-.04,1.98-1.57,3.11-4.17,3.08-.24,0-.48,0-.72,0Z"/>
      <path class="cls-1" d="M37.23,115.98c0-.56,0-.92,0-1.28,.06-1.88,1.31-3.27,3.02-3.35,1.64-.08,3.13,1.24,3.27,3.12,.15,2.02,.23,4.02,.74,6,2.81,10.9,11.95,18.32,23.19,18.78,2.64,.11,4.24,1.5,4.01,3.49-.2,1.77-1.58,2.93-3.68,2.85-11.44-.45-20.21-5.59-26.23-15.29-2.74-4.42-4.05-9.33-4.33-14.32Z"/>
    </g>
  </g>
</svg>